<svg id="svg" version="1.1" width="400" height="400" viewBox="0 0 400 400" xmlns="http://www.w3.org/2000/svg" xmlns:xlink="http://www.w3.org/1999/xlink" ><g id="svgg"><path id="path0" d="M224.286 94.447 C 223.436 95.377,221.274 98.838,220.318 100.800 C 218.072 105.407,216.800 108.170,216.800 108.438 C 216.800 108.782,214.768 113.385,213.578 115.738 C 213.150 116.584,212.800 117.546,212.800 117.876 C 212.800 118.206,212.546 118.954,212.236 119.538 C 211.349 121.209,209.600 125.189,209.600 125.536 C 209.600 125.709,209.150 126.783,208.600 127.923 C 208.050 129.063,207.600 130.149,207.600 130.337 C 207.600 130.796,206.458 133.287,205.278 135.400 C 205.033 135.840,204.272 137.550,203.588 139.200 C 202.466 141.905,199.584 148.098,197.568 152.138 C 197.145 152.984,196.800 153.856,196.800 154.077 C 196.800 154.298,196.551 155.046,196.247 155.740 C 195.716 156.953,194.707 159.329,194.014 161.000 C 193.832 161.440,193.214 162.840,192.641 164.111 C 192.069 165.382,191.600 166.687,191.600 167.011 C 191.600 167.335,191.420 167.600,191.200 167.600 C 190.980 167.600,190.800 167.807,190.800 168.060 C 190.800 169.207,181.834 187.207,181.100 187.533 C 180.935 187.607,180.800 187.840,180.800 188.053 C 180.800 188.265,180.126 189.465,179.303 190.719 C 178.479 191.974,177.667 193.270,177.498 193.600 C 176.459 195.628,169.692 204.801,167.000 207.831 C 166.780 208.078,165.070 210.061,163.200 212.237 C 158.758 217.404,150.425 225.727,145.414 230.000 C 143.221 231.870,140.808 233.985,140.052 234.700 C 139.296 235.415,138.562 236.000,138.422 236.000 C 138.282 236.000,137.518 236.585,136.725 237.300 C 135.931 238.015,134.628 239.050,133.827 239.600 C 133.027 240.150,131.794 241.092,131.086 241.694 C 130.379 242.295,129.575 242.790,129.300 242.794 C 129.025 242.797,128.800 242.941,128.800 243.114 C 128.800 243.286,128.257 243.748,127.593 244.141 C 126.120 245.011,126.264 245.310,128.480 245.975 C 129.426 246.259,130.560 246.632,131.000 246.805 C 131.440 246.977,132.791 247.319,134.002 247.566 C 135.214 247.812,136.719 248.281,137.348 248.607 C 137.977 248.933,138.713 249.200,138.983 249.200 C 141.881 249.200,147.324 255.545,151.759 264.094 C 154.351 269.092,154.919 270.127,155.221 270.400 C 155.577 270.722,156.800 273.480,156.800 273.960 C 156.800 274.202,156.938 274.400,157.106 274.400 C 157.427 274.400,158.800 277.320,158.800 278.003 C 158.800 278.221,158.938 278.400,159.106 278.400 C 159.427 278.400,160.800 281.320,160.800 282.003 C 160.800 282.221,160.938 282.400,161.106 282.400 C 161.427 282.400,162.800 285.320,162.800 286.003 C 162.800 286.221,162.980 286.400,163.200 286.400 C 163.420 286.400,163.600 286.654,163.600 286.966 C 163.600 287.277,164.124 288.582,164.764 289.866 C 166.601 293.547,170.614 301.993,171.624 304.300 C 172.759 306.895,172.639 306.899,177.015 304.097 C 177.447 303.821,178.070 303.474,178.400 303.327 C 178.730 303.179,179.090 302.951,179.200 302.820 C 179.310 302.690,180.660 301.780,182.200 300.800 C 183.740 299.820,185.090 298.917,185.200 298.794 C 185.310 298.671,187.089 297.340,189.152 295.837 C 191.216 294.333,193.196 292.864,193.552 292.572 C 193.909 292.281,195.280 291.181,196.600 290.128 C 199.641 287.702,210.947 276.328,212.800 273.829 C 213.570 272.791,214.515 271.567,214.900 271.109 C 215.285 270.652,215.600 270.170,215.600 270.039 C 215.601 269.907,216.006 269.310,216.500 268.710 C 216.995 268.111,217.850 266.966,218.400 266.167 C 218.950 265.367,219.895 264.166,220.500 263.497 C 221.105 262.828,221.600 262.162,221.600 262.016 C 221.600 261.870,221.917 261.402,222.305 260.975 C 222.692 260.549,224.435 258.490,226.179 256.400 C 231.365 250.183,240.889 241.200,242.296 241.200 C 242.519 241.200,242.912 240.947,243.169 240.638 C 243.760 239.925,248.214 237.727,249.800 237.364 C 250.460 237.213,251.236 236.903,251.525 236.675 C 253.715 234.946,264.286 236.591,269.500 239.473 C 270.545 240.050,272.064 240.868,272.876 241.291 C 273.687 241.714,274.564 242.316,274.825 242.630 C 275.085 242.943,275.464 243.200,275.666 243.200 C 276.016 243.200,280.029 246.061,281.110 247.081 C 281.390 247.346,282.467 248.246,283.502 249.081 C 287.509 252.316,293.102 257.692,297.713 262.742 C 299.191 264.361,300.400 265.406,300.400 265.066 C 300.400 264.726,300.236 264.346,300.035 264.222 C 299.834 264.097,299.542 263.239,299.385 262.313 C 299.229 261.388,298.943 260.309,298.751 259.915 C 298.558 259.522,298.243 258.879,298.051 258.487 C 297.859 258.095,297.578 257.150,297.428 256.387 C 297.172 255.096,296.737 253.872,296.004 252.387 C 295.838 252.050,295.578 251.150,295.428 250.387 C 295.169 249.076,294.720 247.826,293.981 246.349 C 293.801 245.991,293.532 245.044,293.382 244.245 C 293.232 243.445,292.950 242.693,292.755 242.572 C 292.560 242.451,292.400 241.924,292.400 241.400 C 292.400 240.876,292.240 240.349,292.045 240.228 C 291.850 240.107,291.564 239.332,291.410 238.504 C 291.255 237.677,290.997 236.820,290.837 236.600 C 290.677 236.380,290.218 235.120,289.817 233.800 C 289.070 231.340,288.537 229.867,288.004 228.787 C 287.838 228.450,287.566 227.556,287.400 226.800 C 287.234 226.044,286.947 225.150,286.762 224.813 C 286.343 224.049,284.066 217.555,283.462 215.400 C 283.216 214.520,282.914 213.710,282.792 213.600 C 282.669 213.490,282.236 212.320,281.829 211.000 C 281.421 209.680,280.955 208.240,280.792 207.800 C 280.424 206.805,279.213 203.672,278.783 202.600 C 278.607 202.160,278.159 200.900,277.789 199.800 C 277.418 198.700,276.968 197.440,276.789 197.000 C 276.609 196.560,276.159 195.300,275.789 194.200 C 275.073 192.075,274.498 190.588,274.004 189.587 C 273.838 189.250,273.567 188.362,273.403 187.614 C 273.239 186.866,272.787 185.690,272.400 185.000 C 272.013 184.310,271.561 183.134,271.397 182.386 C 271.233 181.638,270.956 180.750,270.783 180.413 C 270.057 179.003,269.200 176.848,269.200 176.434 C 269.200 176.189,269.041 175.677,268.847 175.295 C 268.347 174.312,267.793 172.911,266.990 170.600 C 266.608 169.500,266.138 168.429,265.947 168.220 C 265.756 168.011,265.600 167.588,265.600 167.280 C 265.600 166.973,265.354 166.154,265.054 165.460 C 264.754 164.767,264.192 163.390,263.806 162.400 C 263.419 161.410,262.770 159.880,262.364 159.000 C 261.958 158.120,261.506 156.891,261.361 156.269 C 261.216 155.646,260.671 154.252,260.149 153.171 C 259.627 152.089,259.200 151.029,259.200 150.814 C 259.200 150.600,258.840 149.783,258.400 149.000 C 257.960 148.217,257.600 147.383,257.600 147.148 C 257.600 146.913,257.312 146.064,256.959 145.260 C 256.607 144.457,256.167 143.440,255.982 143.000 C 255.797 142.560,255.190 141.170,254.633 139.911 C 254.076 138.652,253.506 137.167,253.367 136.611 C 253.227 136.055,252.953 135.600,252.757 135.600 C 252.560 135.600,252.400 135.341,252.400 135.024 C 252.400 134.707,251.680 132.896,250.800 131.000 C 249.920 129.104,249.200 127.293,249.200 126.976 C 249.200 126.659,249.020 126.400,248.800 126.400 C 248.580 126.400,248.400 126.231,248.400 126.024 C 248.400 125.238,242.601 113.241,239.495 107.600 C 238.950 106.610,238.165 105.170,237.752 104.400 C 237.338 103.630,236.910 102.910,236.800 102.800 C 236.690 102.690,235.744 101.340,234.698 99.800 C 230.745 93.980,226.642 91.871,224.286 94.447 M127.428 187.955 C 127.307 188.150,126.555 188.432,125.755 188.582 C 124.956 188.732,124.009 189.004,123.651 189.186 C 123.293 189.369,122.190 189.828,121.200 190.207 C 120.210 190.586,119.040 191.040,118.600 191.217 C 118.160 191.393,116.900 191.838,115.800 192.204 C 114.700 192.571,113.530 192.998,113.200 193.154 C 112.870 193.310,111.520 193.788,110.200 194.217 C 108.880 194.646,107.710 195.089,107.600 195.202 C 107.490 195.314,106.410 195.735,105.200 196.137 C 102.977 196.876,101.507 197.443,100.387 197.996 C 100.050 198.162,99.156 198.434,98.400 198.600 C 97.644 198.766,96.750 199.038,96.413 199.204 C 95.425 199.692,94.026 200.231,90.200 201.600 C 88.220 202.308,86.240 203.034,85.800 203.213 C 85.360 203.392,84.100 203.841,83.000 204.211 C 80.719 204.979,79.985 205.262,77.940 206.159 C 77.136 206.512,76.202 206.800,75.863 206.800 C 75.524 206.800,75.136 206.980,75.000 207.200 C 74.864 207.420,74.448 207.603,74.076 207.606 C 71.983 207.625,72.977 210.325,75.100 210.386 C 75.375 210.394,75.600 210.551,75.600 210.736 C 75.600 210.920,76.005 211.280,76.500 211.535 C 76.995 211.791,78.210 212.629,79.200 213.398 C 80.190 214.167,81.405 214.973,81.900 215.189 C 82.395 215.404,82.800 215.720,82.801 215.890 C 82.801 216.061,83.656 216.735,84.701 217.388 C 85.745 218.042,86.838 218.807,87.129 219.088 C 87.419 219.370,87.790 219.600,87.953 219.600 C 88.116 219.600,88.598 219.924,89.025 220.320 C 89.451 220.716,90.385 221.385,91.100 221.806 C 91.815 222.228,92.400 222.714,92.400 222.886 C 92.400 223.059,92.590 223.200,92.821 223.200 C 93.053 223.200,94.581 224.190,96.217 225.400 C 97.854 226.610,99.372 227.600,99.593 227.600 C 99.813 227.600,100.218 227.960,100.493 228.400 C 100.768 228.840,101.131 229.200,101.299 229.200 C 101.468 229.200,103.224 230.370,105.200 231.800 C 107.176 233.230,108.975 234.400,109.197 234.400 C 109.419 234.400,109.600 234.551,109.600 234.736 C 109.600 234.920,110.005 235.280,110.500 235.535 C 110.995 235.791,112.210 236.618,113.200 237.373 C 114.190 238.129,115.180 238.758,115.400 238.771 C 116.328 238.828,150.212 204.392,149.600 204.014 C 148.926 203.598,148.365 203.167,142.414 198.483 C 140.096 196.659,137.419 194.589,136.465 193.883 C 135.510 193.177,134.179 192.105,133.505 191.500 C 132.832 190.895,132.171 190.400,132.036 190.400 C 131.902 190.400,131.073 189.773,130.196 189.008 C 128.580 187.598,127.826 187.311,127.428 187.955 " stroke="none" fill="#fbb304" fill-rule="evenodd"></path><path id="path1" d="M198.400 0.575 C 198.400 0.919,198.240 1.200,198.043 1.200 C 197.847 1.200,197.574 1.650,197.436 2.200 C 197.298 2.750,197.008 3.200,196.792 3.200 C 196.577 3.200,196.400 3.571,196.400 4.024 C 196.400 4.477,196.235 4.745,196.033 4.620 C 195.830 4.495,195.550 4.916,195.410 5.555 C 195.270 6.194,194.815 7.024,194.400 7.400 C 193.985 7.776,193.531 8.604,193.391 9.241 C 193.251 9.879,192.971 10.400,192.768 10.400 C 192.566 10.400,192.400 10.670,192.400 11.000 C 192.400 11.330,192.265 11.601,192.100 11.603 C 191.698 11.606,190.400 13.919,190.400 14.632 C 190.400 14.945,190.232 15.200,190.027 15.200 C 189.822 15.200,189.530 15.591,189.378 16.069 C 189.226 16.547,188.757 17.309,188.336 17.761 C 187.914 18.214,187.466 18.993,187.341 19.492 C 187.216 19.991,186.953 20.400,186.757 20.400 C 186.560 20.400,186.400 20.670,186.400 21.000 C 186.400 21.330,186.223 21.600,186.008 21.600 C 185.792 21.600,185.502 22.050,185.364 22.600 C 185.226 23.150,184.953 23.600,184.757 23.600 C 184.560 23.600,184.400 23.960,184.400 24.400 C 184.400 24.840,184.240 25.200,184.043 25.200 C 183.847 25.200,183.584 25.609,183.459 26.108 C 183.334 26.607,182.860 27.414,182.407 27.900 C 181.954 28.387,181.579 28.923,181.574 29.092 C 181.551 29.862,181.087 31.200,180.843 31.200 C 180.694 31.200,180.232 31.785,179.816 32.500 C 179.401 33.215,178.957 33.890,178.830 34.000 C 178.302 34.459,177.200 36.776,177.200 37.428 C 177.200 37.816,177.079 38.012,176.930 37.863 C 176.576 37.509,175.206 39.600,175.203 40.500 C 175.201 40.885,175.020 41.200,174.800 41.200 C 174.580 41.200,174.400 41.470,174.400 41.800 C 174.400 42.130,174.223 42.400,174.008 42.400 C 173.792 42.400,173.502 42.850,173.364 43.400 C 173.226 43.950,172.953 44.400,172.757 44.400 C 172.560 44.400,172.400 44.670,172.400 45.000 C 172.400 45.330,172.234 45.600,172.032 45.600 C 171.829 45.600,171.545 46.140,171.400 46.800 C 171.255 47.460,170.971 48.000,170.768 48.000 C 170.566 48.000,170.400 48.270,170.400 48.600 C 170.400 48.930,170.220 49.200,170.000 49.200 C 169.780 49.200,169.600 49.409,169.600 49.665 C 169.600 50.082,167.347 53.905,166.809 54.400 C 166.690 54.510,166.077 55.635,165.448 56.900 C 164.819 58.165,164.160 59.200,163.984 59.200 C 163.808 59.200,163.545 59.740,163.400 60.400 C 163.255 61.060,162.971 61.600,162.768 61.600 C 162.566 61.600,162.400 61.960,162.400 62.400 C 162.400 62.840,162.224 63.200,162.010 63.200 C 161.795 63.200,161.246 63.965,160.789 64.900 C 160.332 65.835,159.566 67.295,159.086 68.144 L 158.213 69.688 156.107 69.441 C 154.949 69.305,153.635 68.880,153.188 68.497 C 152.740 68.113,152.245 67.785,152.087 67.767 C 151.064 67.651,149.600 67.056,149.600 66.757 C 149.600 66.560,149.150 66.400,148.600 66.400 C 148.050 66.400,147.600 66.234,147.600 66.032 C 147.600 65.829,147.015 65.537,146.300 65.382 C 145.585 65.226,144.910 64.987,144.800 64.850 C 144.482 64.453,142.850 63.600,142.408 63.600 C 141.727 63.600,138.800 62.230,138.800 61.910 C 138.800 61.745,138.080 61.494,137.200 61.354 C 136.320 61.213,135.600 60.985,135.600 60.847 C 135.600 60.708,135.015 60.349,134.300 60.048 C 133.585 59.747,132.477 59.253,131.839 58.950 C 131.200 58.648,130.435 58.400,130.139 58.400 C 129.842 58.400,129.600 58.236,129.600 58.035 C 129.600 57.834,128.880 57.549,128.000 57.400 C 127.120 57.251,126.400 56.980,126.400 56.798 C 126.400 56.615,125.545 56.152,124.500 55.767 C 123.455 55.382,122.429 54.918,122.220 54.734 C 122.011 54.550,121.516 54.400,121.120 54.400 C 120.724 54.400,120.400 54.228,120.400 54.018 C 120.400 53.808,119.770 53.518,119.000 53.374 C 118.230 53.229,117.600 52.995,117.600 52.853 C 117.600 52.511,115.723 51.733,114.100 51.402 C 113.385 51.256,112.800 50.971,112.800 50.768 C 112.800 50.566,112.429 50.400,111.976 50.400 C 111.523 50.400,111.254 50.236,111.378 50.035 C 111.502 49.835,110.883 49.549,110.002 49.400 C 109.121 49.251,108.400 48.966,108.400 48.765 C 108.400 48.564,108.140 48.400,107.821 48.400 C 107.503 48.400,106.396 47.950,105.362 47.400 C 104.327 46.850,103.238 46.400,102.940 46.400 C 102.643 46.400,102.400 46.236,102.400 46.035 C 102.400 45.834,101.650 45.544,100.733 45.389 C 99.817 45.234,98.705 44.770,98.263 44.359 C 97.821 43.947,96.861 43.498,96.130 43.360 C 95.398 43.223,94.800 42.951,94.800 42.755 C 94.800 42.560,94.350 42.400,93.800 42.400 C 93.250 42.400,92.800 42.234,92.800 42.032 C 92.800 41.829,92.260 41.545,91.600 41.400 C 90.940 41.255,90.400 40.971,90.400 40.768 C 90.400 40.566,90.051 40.400,89.624 40.400 C 89.197 40.400,88.749 40.240,88.628 40.045 C 88.507 39.850,87.777 39.572,87.004 39.427 C 86.232 39.282,85.599 39.037,85.597 38.882 C 85.592 38.449,83.553 37.600,82.520 37.600 C 81.525 37.600,81.049 44.012,82.000 44.600 C 82.220 44.736,82.400 46.446,82.400 48.400 C 82.400 50.354,82.552 52.047,82.738 52.161 C 82.923 52.276,83.196 54.756,83.344 57.671 C 83.491 60.586,83.789 63.149,84.006 63.366 C 84.223 63.583,84.400 65.329,84.400 67.247 C 84.400 69.164,84.555 70.793,84.744 70.867 C 85.058 70.988,85.781 81.547,85.648 84.074 C 85.617 84.664,85.773 85.260,85.996 85.397 C 86.218 85.535,86.400 86.537,86.400 87.624 C 86.400 88.711,86.558 89.600,86.751 89.600 C 86.945 89.600,87.234 92.931,87.395 97.003 C 87.556 101.075,87.847 104.506,88.043 104.627 C 88.240 104.748,88.400 106.442,88.400 108.390 C 88.400 110.339,88.566 111.993,88.768 112.067 C 88.970 112.140,89.187 114.000,89.251 116.200 L 89.366 120.200 87.788 120.330 C 86.920 120.401,86.028 120.604,85.805 120.781 C 85.582 120.958,84.154 121.232,82.632 121.391 C 81.109 121.549,79.489 121.869,79.032 122.102 C 78.574 122.334,77.917 122.658,77.571 122.822 C 77.225 122.985,75.557 123.248,73.865 123.407 C 72.173 123.565,70.690 123.854,70.571 124.048 C 70.451 124.241,69.643 124.400,68.776 124.400 C 67.909 124.400,67.200 124.554,67.200 124.743 C 67.200 124.932,66.083 125.203,64.718 125.346 C 63.352 125.488,62.056 125.784,61.838 126.002 C 61.619 126.221,60.756 126.400,59.920 126.400 C 59.084 126.400,58.400 126.565,58.400 126.766 C 58.400 126.967,57.025 127.261,55.345 127.418 C 53.665 127.575,51.833 127.942,51.274 128.232 C 50.715 128.522,50.109 128.668,49.929 128.556 C 49.748 128.444,49.600 128.528,49.600 128.742 C 49.600 128.956,48.205 129.261,46.500 129.418 C 44.795 129.576,43.305 129.852,43.190 130.031 C 43.074 130.210,42.219 130.402,41.290 130.457 C 40.360 130.512,39.600 130.678,39.600 130.827 C 39.600 131.054,38.373 131.275,34.900 131.676 C 34.625 131.707,34.400 131.883,34.400 132.067 C 34.400 132.250,33.680 132.400,32.800 132.400 C 31.920 132.400,31.200 132.554,31.200 132.742 C 31.200 133.047,26.919 133.691,25.091 133.660 C 24.702 133.654,24.487 133.818,24.615 134.024 C 24.743 134.231,24.397 134.400,23.847 134.400 C 23.297 134.400,22.746 134.564,22.622 134.764 C 22.498 134.965,20.868 135.256,18.999 135.412 C 17.129 135.567,15.600 135.853,15.600 136.047 C 15.600 136.241,14.891 136.400,14.024 136.400 C 13.157 136.400,12.336 136.580,12.200 136.800 C 12.064 137.020,11.333 137.200,10.576 137.200 C 8.756 137.200,8.611 138.925,10.300 140.481 C 10.905 141.038,12.026 142.237,12.791 143.147 C 13.556 144.056,14.411 144.800,14.691 144.800 C 14.971 144.800,15.200 145.098,15.200 145.462 C 15.200 145.826,15.875 146.774,16.700 147.568 C 17.525 148.363,18.677 149.640,19.261 150.406 C 19.845 151.173,21.285 152.828,22.461 154.085 C 23.637 155.342,25.230 157.115,26.000 158.024 C 26.770 158.933,28.254 160.515,29.298 161.539 C 30.342 162.562,31.197 163.545,31.198 163.722 C 31.199 163.899,32.370 165.214,33.800 166.644 C 35.230 168.074,36.400 169.404,36.400 169.600 C 36.400 169.795,36.800 170.235,37.289 170.577 C 37.778 170.920,38.042 171.200,37.875 171.200 C 37.709 171.200,38.074 171.701,38.686 172.314 C 39.299 172.927,40.658 174.412,41.706 175.614 C 43.947 178.183,44.195 178.452,44.881 179.060 C 45.166 179.314,45.850 180.115,46.400 180.842 C 46.950 181.568,48.213 182.981,49.206 183.981 C 50.199 184.982,51.639 186.609,52.406 187.598 C 53.173 188.587,54.700 190.312,55.800 191.433 C 58.010 193.684,59.600 195.620,59.600 196.060 C 59.600 196.217,59.951 196.457,60.380 196.594 C 60.808 196.730,61.267 197.183,61.400 197.600 C 61.533 198.017,61.992 198.470,62.420 198.606 C 63.482 198.943,63.419 200.450,62.300 201.500 C 61.805 201.965,61.184 202.582,60.919 202.872 C 60.655 203.163,60.205 203.611,59.919 203.869 C 59.634 204.127,58.950 204.884,58.400 205.553 C 57.850 206.221,56.545 207.676,55.500 208.786 C 54.455 209.896,53.600 210.885,53.600 210.984 C 53.600 211.170,53.292 211.512,49.600 215.435 C 48.390 216.721,46.874 218.499,46.231 219.386 C 45.588 220.274,44.238 221.838,43.231 222.862 C 39.898 226.252,37.692 228.758,37.877 228.944 C 37.978 229.045,37.712 229.237,37.287 229.372 C 36.862 229.507,36.354 229.977,36.157 230.415 C 35.838 231.129,33.932 233.317,29.000 238.634 C 28.120 239.583,26.770 241.095,26.000 241.994 C 25.230 242.893,23.682 244.589,22.560 245.762 C 21.438 246.936,19.999 248.594,19.361 249.448 C 18.724 250.302,17.482 251.728,16.601 252.618 C 15.721 253.509,14.190 255.195,13.200 256.367 C 12.210 257.538,10.897 258.962,10.281 259.531 C 8.746 260.950,8.905 262.546,10.600 262.731 C 11.260 262.803,11.971 263.028,12.180 263.231 C 12.389 263.434,13.143 263.600,13.856 263.600 C 14.569 263.600,15.252 263.761,15.374 263.958 C 15.496 264.155,17.037 264.444,18.798 264.600 C 20.559 264.756,22.000 265.045,22.000 265.242 C 22.000 265.439,22.529 265.600,23.176 265.600 C 23.823 265.600,24.455 265.765,24.579 265.966 C 24.704 266.167,26.157 266.459,27.808 266.614 C 29.460 266.768,30.910 267.054,31.029 267.248 C 31.149 267.441,31.957 267.600,32.824 267.600 C 33.691 267.600,34.400 267.766,34.400 267.968 C 34.400 268.171,35.573 268.462,37.006 268.615 C 38.439 268.769,39.709 269.053,39.829 269.247 C 39.949 269.441,40.757 269.600,41.624 269.600 C 42.491 269.600,43.200 269.761,43.200 269.958 C 43.200 270.155,44.640 270.444,46.400 270.600 C 48.160 270.756,49.600 271.025,49.600 271.198 C 49.600 271.532,50.380 271.707,55.300 272.475 C 57.005 272.741,58.400 273.103,58.400 273.279 C 58.400 273.456,59.109 273.600,59.976 273.600 C 60.843 273.600,61.651 273.759,61.771 273.953 C 61.891 274.147,63.161 274.431,64.594 274.585 C 66.027 274.738,67.200 275.029,67.200 275.232 C 67.200 275.434,67.909 275.600,68.776 275.600 C 69.643 275.600,70.457 275.768,70.583 275.973 C 70.710 276.178,72.251 276.472,74.007 276.625 C 75.763 276.778,77.200 277.040,77.200 277.208 C 77.200 277.375,77.785 277.615,78.500 277.741 C 82.037 278.362,85.462 279.079,86.000 279.310 C 86.330 279.453,87.222 279.621,87.983 279.685 L 89.366 279.800 89.253 283.800 C 89.190 286.000,88.973 287.971,88.770 288.180 C 88.566 288.389,88.400 290.144,88.400 292.080 C 88.400 294.259,88.241 295.600,87.982 295.600 C 87.753 295.600,87.604 295.825,87.652 296.100 C 87.878 297.390,87.056 310.400,86.749 310.400 C 86.557 310.400,86.400 311.270,86.400 312.333 C 86.400 313.397,86.265 314.402,86.100 314.567 C 85.935 314.732,85.777 315.437,85.749 316.134 C 85.449 323.593,85.016 329.200,84.739 329.200 C 84.553 329.200,84.400 330.742,84.400 332.626 C 84.400 334.511,84.221 336.386,84.003 336.794 C 83.785 337.202,83.487 339.897,83.341 342.783 C 83.195 345.669,82.923 348.124,82.738 348.239 C 82.552 348.353,82.400 350.046,82.400 352.000 C 82.400 353.954,82.220 355.664,82.000 355.800 C 81.780 355.936,81.600 357.392,81.600 359.036 C 81.600 362.258,82.115 363.020,83.648 362.063 C 84.055 361.808,84.662 361.600,84.995 361.600 C 85.328 361.600,85.600 361.434,85.600 361.232 C 85.600 361.029,86.136 360.746,86.791 360.602 C 87.446 360.458,88.841 359.905,89.891 359.372 C 90.941 358.839,92.025 358.403,92.300 358.402 C 92.575 358.401,92.800 358.220,92.800 358.000 C 92.800 357.780,93.250 357.600,93.800 357.600 C 94.350 357.600,94.800 357.440,94.800 357.245 C 94.800 357.049,95.435 356.770,96.211 356.624 C 96.987 356.479,97.517 356.189,97.388 355.980 C 97.258 355.771,97.523 355.600,97.976 355.600 C 98.429 355.600,98.800 355.420,98.800 355.200 C 98.800 354.980,99.210 354.800,99.711 354.800 C 100.212 354.800,101.663 354.260,102.935 353.600 C 104.207 352.940,105.597 352.400,106.024 352.400 C 106.451 352.400,106.800 352.220,106.800 352.000 C 106.800 351.780,107.160 351.600,107.600 351.600 C 108.040 351.600,108.400 351.420,108.400 351.200 C 108.400 350.980,108.664 350.800,108.986 350.800 C 109.697 350.800,112.549 349.514,112.729 349.113 C 112.800 348.955,113.477 348.709,114.234 348.567 C 114.990 348.425,115.707 348.150,115.828 347.955 C 115.949 347.760,116.397 347.600,116.824 347.600 C 117.251 347.600,117.600 347.428,117.600 347.218 C 117.600 347.008,118.230 346.718,119.000 346.574 C 119.770 346.429,120.400 346.151,120.400 345.955 C 120.400 345.760,120.749 345.600,121.176 345.600 C 121.603 345.600,122.055 345.434,122.181 345.231 C 122.306 345.028,122.947 344.743,123.605 344.599 C 124.262 344.455,124.800 344.171,124.800 343.968 C 124.800 343.766,125.160 343.600,125.600 343.600 C 126.040 343.600,126.400 343.442,126.400 343.250 C 126.400 342.965,128.172 342.405,129.016 342.424 C 129.133 342.426,129.500 342.157,129.832 341.825 C 130.164 341.493,131.193 341.004,132.118 340.738 C 133.043 340.472,134.278 339.927,134.862 339.527 C 135.446 339.127,136.166 338.796,136.462 338.791 C 136.758 338.786,138.080 338.250,139.400 337.600 C 140.720 336.950,142.027 336.414,142.305 336.409 C 142.833 336.400,144.455 335.582,144.800 335.150 C 144.910 335.013,145.585 334.774,146.300 334.618 C 147.015 334.463,147.600 334.171,147.600 333.968 C 147.600 333.766,148.050 333.600,148.600 333.600 C 149.150 333.600,149.600 333.432,149.600 333.227 C 149.600 333.022,150.005 332.736,150.500 332.591 C 152.032 332.144,153.600 331.417,153.600 331.153 C 153.600 331.015,154.320 330.787,155.200 330.646 C 156.080 330.506,156.800 330.213,156.800 329.995 C 156.800 328.912,158.052 329.821,158.872 331.500 C 159.382 332.545,159.935 333.460,160.100 333.533 C 160.265 333.607,160.400 333.922,160.400 334.233 C 160.400 334.545,160.560 334.800,160.757 334.800 C 160.953 334.800,161.226 335.250,161.364 335.800 C 161.502 336.350,161.792 336.800,162.008 336.800 C 162.223 336.800,162.400 337.171,162.400 337.624 C 162.400 338.077,162.558 338.350,162.751 338.230 C 162.945 338.111,163.202 338.505,163.324 339.106 C 163.446 339.708,163.872 340.565,164.273 341.011 C 164.673 341.457,165.350 342.537,165.777 343.411 C 166.205 344.285,166.930 345.540,167.388 346.200 C 167.846 346.860,168.576 348.115,169.011 348.989 C 169.445 349.863,170.127 350.943,170.527 351.389 C 170.928 351.835,171.355 352.695,171.477 353.300 C 171.600 353.905,171.858 354.400,172.050 354.400 C 172.243 354.400,172.400 354.670,172.400 355.000 C 172.400 355.330,172.580 355.600,172.800 355.600 C 173.020 355.600,173.200 355.870,173.200 356.200 C 173.200 356.530,173.391 356.800,173.624 356.800 C 173.857 356.800,173.936 356.980,173.800 357.200 C 173.664 357.420,173.743 357.600,173.976 357.600 C 174.209 357.600,174.400 357.855,174.400 358.167 C 174.400 358.478,174.535 358.793,174.700 358.867 C 175.014 359.006,176.105 360.890,177.151 363.100 C 177.490 363.815,177.909 364.400,178.083 364.400 C 178.258 364.400,178.400 364.670,178.400 365.000 C 178.400 365.330,178.577 365.600,178.792 365.600 C 179.008 365.600,179.298 366.050,179.436 366.600 C 179.574 367.150,179.847 367.600,180.043 367.600 C 180.240 367.600,180.400 367.870,180.400 368.200 C 180.400 368.530,180.580 368.800,180.800 368.800 C 181.020 368.800,181.201 369.115,181.202 369.500 C 181.203 369.885,181.742 371.010,182.400 372.000 C 183.058 372.990,183.597 374.025,183.598 374.300 C 183.599 374.575,183.780 374.800,184.000 374.800 C 184.220 374.800,184.400 374.984,184.400 375.210 C 184.400 375.435,185.120 376.760,186.000 378.153 C 186.880 379.546,187.600 380.892,187.600 381.143 C 187.600 381.394,187.780 381.600,188.000 381.600 C 188.220 381.600,188.400 381.870,188.400 382.200 C 188.400 382.530,188.535 382.801,188.700 382.803 C 189.109 382.806,190.400 385.124,190.400 385.856 C 190.400 386.181,190.580 386.336,190.800 386.200 C 191.020 386.064,191.200 386.311,191.200 386.748 C 191.200 387.185,191.470 387.813,191.800 388.143 C 192.130 388.473,192.400 388.936,192.400 389.171 C 192.400 389.407,192.560 389.600,192.757 389.600 C 192.953 389.600,193.216 390.009,193.341 390.508 C 193.466 391.007,193.954 391.829,194.424 392.333 C 194.894 392.838,195.311 393.477,195.352 393.753 C 195.889 397.412,201.600 401.971,201.600 398.741 C 201.600 398.543,202.320 397.240,203.200 395.847 C 204.080 394.454,204.800 393.108,204.800 392.857 C 204.800 392.606,204.935 392.399,205.100 392.397 C 205.502 392.394,206.800 390.081,206.800 389.368 C 206.800 389.055,206.980 388.800,207.200 388.800 C 207.420 388.800,207.600 388.530,207.600 388.200 C 207.600 387.870,207.777 387.600,207.992 387.600 C 208.208 387.600,208.498 387.150,208.636 386.600 C 208.774 386.050,209.047 385.600,209.243 385.600 C 209.440 385.600,209.600 385.330,209.600 385.000 C 209.600 384.670,209.735 384.398,209.900 384.396 C 210.065 384.394,210.555 383.584,210.990 382.596 C 211.424 381.608,211.899 380.800,212.046 380.800 C 212.193 380.800,212.426 380.350,212.564 379.800 C 212.702 379.250,212.992 378.800,213.208 378.800 C 213.423 378.800,213.600 378.530,213.600 378.200 C 213.600 377.870,213.780 377.600,214.000 377.600 C 214.220 377.600,214.400 377.372,214.400 377.093 C 214.400 376.814,214.825 375.959,215.344 375.193 C 215.862 374.427,216.424 373.364,216.592 372.831 C 216.760 372.298,217.243 371.491,217.664 371.039 C 218.086 370.586,218.534 369.807,218.659 369.308 C 218.784 368.809,219.047 368.400,219.243 368.400 C 219.440 368.400,219.600 368.040,219.600 367.600 C 219.600 367.160,219.768 366.800,219.973 366.800 C 220.178 366.800,220.474 366.395,220.631 365.900 C 220.787 365.405,221.339 364.443,221.858 363.762 C 222.376 363.081,222.800 362.316,222.800 362.062 C 222.800 361.808,222.980 361.600,223.200 361.600 C 223.420 361.600,223.600 361.330,223.600 361.000 C 223.600 360.670,223.777 360.400,223.992 360.400 C 224.208 360.400,224.498 359.950,224.636 359.400 C 224.774 358.850,225.058 358.400,225.267 358.400 C 225.476 358.400,225.545 358.235,225.420 358.032 C 225.295 357.830,225.441 357.417,225.744 357.114 C 226.047 356.811,226.420 356.166,226.574 355.681 C 226.728 355.197,227.022 354.800,227.227 354.800 C 227.432 354.800,227.600 354.530,227.600 354.200 C 227.600 353.870,227.766 353.600,227.968 353.600 C 228.171 353.600,228.451 353.079,228.591 352.441 C 228.731 351.804,229.195 350.966,229.623 350.579 C 230.050 350.193,230.400 349.698,230.400 349.481 C 230.400 349.264,231.390 347.518,232.600 345.600 C 233.810 343.682,234.800 341.900,234.800 341.640 C 234.800 341.380,235.167 340.773,235.615 340.291 C 236.064 339.810,236.534 339.007,236.659 338.508 C 236.784 338.009,237.047 337.600,237.243 337.600 C 237.440 337.600,237.600 337.330,237.600 337.000 C 237.600 336.670,237.735 336.398,237.900 336.396 C 238.065 336.394,238.555 335.584,238.990 334.596 C 239.424 333.608,239.899 332.800,240.046 332.800 C 240.193 332.800,240.426 332.350,240.564 331.800 C 240.702 331.250,240.992 330.800,241.208 330.800 C 241.423 330.800,241.600 330.530,241.600 330.200 C 241.600 329.521,242.226 329.395,242.600 330.000 C 242.736 330.220,243.157 330.400,243.535 330.400 C 243.913 330.400,245.263 330.940,246.535 331.600 C 247.807 332.260,249.124 332.800,249.462 332.800 C 249.800 332.800,250.554 333.127,251.138 333.527 C 251.722 333.927,252.957 334.472,253.882 334.738 C 254.807 335.004,255.832 335.489,256.159 335.816 C 256.486 336.143,257.349 336.525,258.077 336.665 C 258.805 336.804,259.861 337.240,260.424 337.633 C 260.988 338.025,261.935 338.469,262.528 338.618 C 263.122 338.767,263.706 339.049,263.827 339.244 C 263.948 339.440,264.397 339.600,264.824 339.600 C 265.251 339.600,265.600 339.760,265.600 339.955 C 265.600 340.151,266.230 340.429,267.000 340.574 C 267.770 340.718,268.400 341.008,268.400 341.218 C 268.400 341.428,268.749 341.600,269.176 341.600 C 269.603 341.600,270.051 341.760,270.172 341.955 C 270.293 342.150,271.010 342.425,271.766 342.567 C 272.523 342.709,273.200 342.955,273.271 343.113 C 273.451 343.514,276.303 344.800,277.014 344.800 C 277.336 344.800,277.600 344.980,277.600 345.200 C 277.600 345.420,277.960 345.600,278.400 345.600 C 278.840 345.600,279.200 345.780,279.200 346.000 C 279.200 346.220,279.549 346.400,279.976 346.400 C 280.403 346.400,281.793 346.940,283.065 347.600 C 284.337 348.260,285.788 348.800,286.289 348.800 C 286.790 348.800,287.200 348.980,287.200 349.200 C 287.200 349.420,287.571 349.600,288.024 349.600 C 288.477 349.600,288.742 349.771,288.612 349.980 C 288.483 350.189,289.013 350.479,289.789 350.624 C 290.565 350.770,291.200 351.049,291.200 351.245 C 291.200 351.440,291.650 351.600,292.200 351.600 C 292.750 351.600,293.200 351.780,293.200 352.000 C 293.200 352.220,293.425 352.401,293.700 352.402 C 293.975 352.403,295.059 352.839,296.109 353.372 C 297.159 353.905,298.554 354.458,299.209 354.602 C 299.864 354.746,300.400 355.029,300.400 355.232 C 300.400 355.434,300.715 355.606,301.100 355.613 C 301.485 355.620,302.149 355.890,302.576 356.213 C 303.004 356.536,303.769 356.800,304.276 356.800 C 304.784 356.800,305.200 356.936,305.200 357.102 C 305.200 357.269,305.785 357.636,306.500 357.920 C 307.215 358.203,308.310 358.697,308.932 359.017 C 309.555 359.338,310.320 359.600,310.632 359.600 C 310.945 359.600,311.200 359.766,311.200 359.968 C 311.200 360.171,311.773 360.462,312.473 360.616 C 313.173 360.770,314.366 361.244,315.123 361.669 C 317.490 362.999,319.585 361.310,317.975 359.370 C 317.761 359.112,317.575 357.349,317.561 355.451 C 317.547 353.553,317.389 352.000,317.209 352.000 C 316.929 352.000,316.111 341.547,316.324 340.700 C 316.366 340.535,316.220 340.400,316.000 340.400 C 315.763 340.400,315.600 338.941,315.600 336.824 C 315.600 334.857,315.446 333.152,315.258 333.036 C 315.070 332.920,314.788 330.008,314.630 326.564 C 314.473 323.121,314.176 319.864,313.972 319.326 C 313.767 318.788,313.600 317.380,313.600 316.198 C 313.600 315.015,313.447 313.953,313.260 313.837 C 312.962 313.653,312.220 302.879,312.342 300.520 C 312.367 300.036,312.211 299.530,311.994 299.396 C 311.777 299.262,311.600 297.543,311.600 295.576 C 311.600 293.609,311.438 292.000,311.241 292.000 C 311.044 292.000,310.760 289.525,310.611 286.500 C 310.462 283.475,310.308 280.730,310.270 280.400 C 310.220 279.973,310.661 279.762,311.795 279.670 C 312.672 279.599,313.482 279.408,313.595 279.247 C 313.708 279.086,315.150 278.735,316.800 278.467 C 321.871 277.645,322.400 277.523,322.400 277.184 C 322.400 277.003,323.840 276.729,325.600 276.576 C 327.360 276.422,328.800 276.140,328.800 275.948 C 328.800 275.757,329.509 275.600,330.376 275.600 C 331.243 275.600,332.051 275.441,332.171 275.247 C 332.291 275.053,333.561 274.769,334.994 274.615 C 336.427 274.462,337.600 274.171,337.600 273.968 C 337.600 273.766,338.320 273.600,339.200 273.600 C 340.080 273.600,340.800 273.420,340.800 273.200 C 340.800 272.980,341.475 272.792,342.300 272.783 C 343.125 272.773,344.610 272.582,345.600 272.358 C 346.590 272.134,347.895 271.851,348.500 271.730 C 349.105 271.609,349.600 271.366,349.600 271.191 C 349.600 271.015,351.130 270.744,353.000 270.589 C 354.870 270.433,356.400 270.147,356.400 269.953 C 356.400 269.759,357.109 269.600,357.976 269.600 C 358.843 269.600,359.653 269.438,359.776 269.239 C 359.898 269.041,361.079 268.753,362.400 268.600 C 363.721 268.447,364.902 268.159,365.024 267.961 C 365.147 267.762,365.946 267.600,366.800 267.600 C 367.654 267.600,368.449 267.444,368.567 267.253 C 368.686 267.062,369.911 266.782,371.291 266.631 C 373.690 266.369,376.145 265.739,377.000 265.165 C 377.220 265.017,378.794 264.769,380.497 264.614 C 382.201 264.459,383.696 264.167,383.821 263.966 C 383.945 263.765,384.746 263.600,385.600 263.600 C 386.454 263.600,387.249 263.444,387.368 263.253 C 387.486 263.061,388.306 262.789,389.191 262.648 C 391.253 262.318,391.254 261.654,389.200 259.600 C 388.320 258.720,387.600 257.891,387.600 257.759 C 387.600 257.502,385.326 255.033,383.500 253.307 C 382.895 252.736,382.400 252.119,382.400 251.937 C 382.400 251.755,381.140 250.305,379.599 248.715 C 378.058 247.125,376.695 245.501,376.570 245.106 C 376.445 244.711,376.175 244.492,375.971 244.618 C 375.767 244.744,375.600 244.661,375.600 244.434 C 375.600 244.207,374.835 243.223,373.900 242.248 C 372.965 241.273,371.390 239.541,370.400 238.399 C 367.877 235.489,367.588 235.200,367.198 235.200 C 367.009 235.200,366.738 234.835,366.596 234.389 C 366.455 233.942,365.093 232.313,363.569 230.769 C 362.046 229.225,360.798 227.835,360.797 227.680 C 360.795 227.526,359.580 226.102,358.097 224.515 C 356.613 222.929,354.770 220.886,354.000 219.976 C 351.993 217.604,351.585 217.200,351.198 217.200 C 351.009 217.200,350.740 216.840,350.600 216.401 C 350.461 215.961,349.053 214.250,347.473 212.598 C 344.101 209.074,342.055 206.800,342.257 206.800 C 342.335 206.800,341.725 206.105,340.900 205.254 C 340.075 204.404,338.654 202.860,337.743 201.821 L 336.085 199.934 337.343 198.513 C 338.034 197.731,339.298 196.351,340.150 195.446 C 341.003 194.541,341.678 193.755,341.650 193.700 C 341.623 193.645,341.735 193.567,341.900 193.527 C 342.065 193.486,342.823 192.631,343.584 191.627 C 344.346 190.622,345.786 188.945,346.784 187.900 C 347.783 186.856,349.050 185.449,349.600 184.774 C 350.587 183.564,351.078 183.043,352.086 182.140 C 352.369 181.886,353.050 181.080,353.600 180.347 C 354.150 179.615,355.500 178.083,356.600 176.942 C 357.700 175.801,359.050 174.289,359.600 173.581 C 360.150 172.873,361.500 171.360,362.600 170.219 C 363.700 169.078,365.050 167.557,365.600 166.838 C 366.569 165.571,367.007 165.097,368.086 164.148 C 368.369 163.899,369.230 162.933,370.000 162.002 C 370.770 161.071,372.524 159.114,373.899 157.654 C 375.273 156.194,376.398 154.868,376.399 154.707 C 376.399 154.547,377.435 153.370,378.700 152.092 C 379.965 150.814,381.450 149.100,382.000 148.284 C 382.550 147.467,383.315 146.697,383.700 146.572 C 384.085 146.448,384.400 146.184,384.400 145.986 C 384.400 145.789,384.985 145.004,385.700 144.243 C 389.145 140.575,390.339 139.199,390.081 139.194 C 389.926 139.191,390.031 139.041,390.314 138.862 C 391.266 138.258,390.402 137.200,388.957 137.200 C 388.211 137.200,387.600 137.020,387.600 136.800 C 387.600 136.580,386.891 136.400,386.024 136.400 C 385.157 136.400,384.348 136.239,384.226 136.042 C 384.104 135.845,382.563 135.556,380.802 135.400 C 379.041 135.244,377.600 134.955,377.600 134.758 C 377.600 134.561,377.161 134.400,376.624 134.400 C 376.087 134.400,375.543 134.232,375.417 134.027 C 375.290 133.822,373.749 133.528,371.993 133.375 C 370.237 133.222,368.800 132.940,368.800 132.748 C 368.800 132.557,368.116 132.400,367.280 132.400 C 366.444 132.400,365.589 132.235,365.380 132.033 C 365.171 131.831,364.010 131.546,362.800 131.400 C 361.590 131.254,360.429 130.969,360.220 130.767 C 360.011 130.565,359.167 130.400,358.344 130.400 C 357.521 130.400,356.747 130.238,356.625 130.041 C 356.503 129.843,355.097 129.563,353.502 129.419 C 350.842 129.178,349.786 128.903,347.938 127.973 C 347.573 127.790,345.903 127.516,344.226 127.364 C 342.550 127.212,341.082 126.933,340.965 126.744 C 340.848 126.555,340.043 126.400,339.176 126.400 C 338.309 126.400,337.600 126.229,337.600 126.020 C 337.600 125.811,336.516 125.517,335.191 125.367 C 333.866 125.217,332.686 124.938,332.567 124.747 C 332.449 124.556,331.654 124.400,330.800 124.400 C 329.946 124.400,329.148 124.239,329.026 124.042 C 328.904 123.845,327.363 123.556,325.602 123.400 C 323.841 123.244,322.400 122.955,322.400 122.758 C 322.400 122.561,321.961 122.400,321.424 122.400 C 320.887 122.400,320.348 122.239,320.226 122.042 C 320.104 121.845,318.563 121.556,316.802 121.400 C 315.041 121.244,313.600 120.955,313.600 120.758 C 313.600 120.561,312.895 120.400,312.033 120.400 C 311.172 120.400,310.407 120.220,310.333 120.000 C 310.085 119.254,310.825 108.604,311.169 107.977 C 311.357 107.634,311.533 105.850,311.560 104.012 C 311.587 102.175,311.778 100.467,311.986 100.217 C 312.193 99.968,312.349 99.411,312.332 98.982 C 312.231 96.378,312.979 85.600,313.260 85.600 C 313.447 85.600,313.604 84.745,313.610 83.700 C 313.615 82.655,313.787 81.080,313.992 80.200 C 314.197 79.320,314.490 75.945,314.642 72.700 C 314.794 69.455,315.072 66.800,315.259 66.800 C 315.447 66.800,315.600 65.191,315.600 63.224 C 315.600 61.257,315.753 59.553,315.940 59.437 C 316.127 59.322,316.406 56.656,316.561 53.514 C 316.717 50.371,317.014 47.629,317.222 47.420 C 317.430 47.211,317.600 45.582,317.600 43.800 C 317.600 42.005,317.793 40.367,318.034 40.126 C 318.797 39.363,318.297 37.814,317.240 37.664 C 316.379 37.543,314.520 38.216,314.000 38.838 C 313.890 38.969,312.765 39.399,311.500 39.793 C 310.235 40.187,309.200 40.645,309.200 40.810 C 309.200 40.976,308.570 41.229,307.800 41.374 C 307.030 41.518,306.400 41.808,306.400 42.018 C 306.400 42.228,306.151 42.400,305.846 42.400 C 305.541 42.400,304.776 42.669,304.146 42.998 C 303.516 43.326,302.685 43.596,302.300 43.598 C 301.915 43.599,301.600 43.780,301.600 44.000 C 301.600 44.220,301.330 44.400,301.000 44.400 C 300.670 44.400,300.400 44.564,300.400 44.765 C 300.400 44.966,299.680 45.251,298.800 45.400 C 297.920 45.549,297.200 45.834,297.200 46.035 C 297.200 46.236,296.975 46.402,296.700 46.404 C 296.425 46.406,295.300 46.850,294.200 47.391 C 293.100 47.932,291.975 48.381,291.700 48.387 C 291.425 48.394,291.200 48.556,291.200 48.748 C 291.200 48.939,290.568 49.198,289.796 49.323 C 289.024 49.448,287.869 49.923,287.230 50.379 C 286.590 50.834,285.512 51.318,284.834 51.453 C 284.155 51.589,283.600 51.858,283.600 52.050 C 283.600 52.242,283.251 52.400,282.824 52.400 C 282.397 52.400,281.945 52.566,281.819 52.769 C 281.694 52.972,281.053 53.257,280.395 53.401 C 279.738 53.545,279.200 53.805,279.200 53.977 C 279.200 54.149,278.165 54.609,276.900 54.998 C 275.635 55.386,274.240 56.022,273.800 56.409 C 273.360 56.797,272.419 57.236,271.709 57.387 C 270.999 57.537,269.559 58.095,268.509 58.628 C 267.459 59.161,266.375 59.597,266.100 59.598 C 265.825 59.599,265.600 59.780,265.600 60.000 C 265.600 60.220,265.150 60.400,264.600 60.400 C 264.050 60.400,263.600 60.566,263.600 60.768 C 263.600 60.971,263.015 61.263,262.300 61.418 C 261.585 61.573,260.550 62.015,260.000 62.400 C 259.450 62.785,258.417 63.227,257.705 63.381 C 256.992 63.535,256.306 63.828,256.181 64.031 C 256.055 64.234,255.603 64.400,255.176 64.400 C 254.749 64.400,254.400 64.580,254.400 64.800 C 254.400 65.020,254.175 65.201,253.900 65.202 C 253.625 65.203,252.561 65.629,251.535 66.149 C 250.510 66.670,249.183 67.218,248.587 67.367 C 247.991 67.517,247.241 67.902,246.919 68.223 C 246.598 68.545,246.170 68.705,245.968 68.580 C 245.765 68.455,245.600 68.535,245.600 68.758 C 245.600 69.989,241.246 69.717,240.600 68.446 C 238.870 65.041,238.159 63.782,237.900 63.667 C 237.735 63.593,237.600 63.278,237.600 62.967 C 237.600 62.655,237.465 62.398,237.300 62.395 C 237.135 62.393,236.656 61.673,236.236 60.795 C 235.815 59.918,235.320 59.200,235.136 59.200 C 234.951 59.200,234.799 58.885,234.799 58.500 C 234.798 58.115,234.079 56.720,233.200 55.400 C 232.321 54.080,231.602 52.775,231.601 52.500 C 231.601 52.225,231.438 52.000,231.239 52.000 C 231.041 52.000,230.689 51.458,230.458 50.795 C 230.227 50.132,229.759 49.483,229.419 49.352 C 229.079 49.221,228.800 48.784,228.800 48.381 C 228.800 47.977,228.617 47.534,228.393 47.396 C 228.170 47.258,228.091 46.977,228.217 46.772 C 228.344 46.568,228.257 46.400,228.024 46.400 C 227.791 46.400,227.600 46.130,227.600 45.800 C 227.600 45.470,227.432 45.200,227.227 45.200 C 227.022 45.200,226.728 44.803,226.574 44.319 C 226.420 43.834,226.047 43.189,225.744 42.886 C 225.441 42.583,225.295 42.170,225.420 41.968 C 225.545 41.765,225.476 41.600,225.267 41.600 C 225.058 41.600,224.774 41.150,224.636 40.600 C 224.498 40.050,224.208 39.600,223.992 39.600 C 223.777 39.600,223.600 39.345,223.600 39.033 C 223.600 38.722,223.465 38.407,223.300 38.333 C 222.927 38.167,221.746 36.224,220.973 34.500 C 220.652 33.785,220.212 33.200,219.995 33.200 C 219.778 33.200,219.600 32.926,219.600 32.592 C 219.600 31.998,217.763 28.797,217.194 28.400 C 217.037 28.290,216.768 27.750,216.597 27.200 C 216.427 26.650,215.862 25.573,215.344 24.807 C 214.825 24.041,214.400 23.175,214.400 22.884 C 214.400 22.592,214.220 22.464,214.000 22.600 C 213.780 22.736,213.600 22.477,213.600 22.024 C 213.600 21.571,213.423 21.200,213.208 21.200 C 212.992 21.200,212.702 20.750,212.564 20.200 C 212.426 19.650,212.153 19.200,211.957 19.200 C 211.760 19.200,211.600 18.930,211.600 18.600 C 211.600 18.270,211.434 18.000,211.232 18.000 C 211.029 18.000,210.745 17.460,210.600 16.800 C 210.455 16.140,210.171 15.600,209.968 15.600 C 209.766 15.600,209.600 15.330,209.600 15.000 C 209.600 14.670,209.463 14.400,209.295 14.400 C 208.989 14.400,208.267 13.215,207.771 11.900 C 207.626 11.515,207.348 11.200,207.153 11.200 C 206.959 11.200,206.800 10.945,206.800 10.632 C 206.800 9.919,205.502 7.606,205.100 7.603 C 204.935 7.601,204.800 7.394,204.800 7.143 C 204.800 6.892,204.125 5.581,203.300 4.229 C 202.475 2.877,201.602 1.418,201.360 0.986 C 200.798 -0.017,198.400 -0.350,198.400 0.575 M230.308 94.155 C 231.129 94.681,232.070 95.519,232.400 96.019 C 232.730 96.518,233.450 97.483,234.000 98.163 C 235.411 99.908,236.800 101.922,236.800 102.222 C 236.800 102.362,237.173 103.000,237.628 103.639 C 239.538 106.322,250.800 128.784,250.800 129.911 C 250.800 130.064,251.273 131.181,251.852 132.394 C 252.430 133.607,253.048 134.960,253.225 135.400 C 253.943 137.190,254.776 139.120,255.761 141.275 C 256.332 142.527,256.806 143.787,256.813 144.075 C 256.820 144.364,257.090 144.949,257.413 145.376 C 257.736 145.804,258.000 146.569,258.000 147.076 C 258.000 147.584,258.144 148.000,258.320 148.000 C 258.495 148.000,258.877 148.675,259.168 149.500 C 259.459 150.325,260.144 151.990,260.689 153.200 C 261.235 154.410,261.777 155.985,261.893 156.700 C 262.010 157.415,262.226 158.000,262.373 158.000 C 262.521 158.000,262.973 158.945,263.377 160.100 C 263.781 161.255,264.267 162.371,264.456 162.580 C 264.645 162.789,264.806 163.329,264.813 163.780 C 264.820 164.231,265.090 164.949,265.413 165.376 C 265.736 165.804,266.000 166.569,266.000 167.076 C 266.000 167.584,266.135 168.000,266.300 168.000 C 266.465 168.000,266.948 169.125,267.373 170.500 C 267.799 171.875,268.268 173.180,268.417 173.400 C 268.566 173.620,269.005 174.700,269.393 175.800 C 269.781 176.900,270.443 178.578,270.865 179.529 C 271.287 180.481,271.743 181.831,271.879 182.529 C 272.015 183.228,272.234 183.890,272.366 184.000 C 272.498 184.110,272.939 185.190,273.344 186.400 C 273.750 187.610,274.431 189.378,274.857 190.329 C 275.283 191.281,275.738 192.589,275.868 193.238 C 275.997 193.886,276.260 194.514,276.452 194.632 C 276.643 194.750,276.806 195.242,276.813 195.724 C 276.820 196.206,277.090 196.949,277.413 197.376 C 277.736 197.804,278.000 198.533,278.000 198.996 C 278.000 199.460,278.143 200.011,278.318 200.220 C 278.493 200.429,278.874 201.320,279.164 202.200 C 279.455 203.080,279.926 204.340,280.211 205.000 C 280.496 205.660,281.028 207.190,281.393 208.400 C 281.758 209.610,282.210 210.960,282.396 211.400 C 282.787 212.320,284.412 216.868,285.398 219.800 C 285.768 220.900,286.235 222.113,286.435 222.495 C 286.636 222.877,286.800 223.541,286.800 223.971 C 286.800 224.401,286.960 224.851,287.155 224.972 C 287.350 225.093,287.636 225.868,287.790 226.696 C 287.945 227.523,288.209 228.380,288.377 228.600 C 288.544 228.820,289.000 229.990,289.389 231.200 C 289.778 232.410,290.218 233.670,290.367 234.000 C 290.516 234.330,290.969 235.680,291.375 237.000 C 291.780 238.320,292.250 239.760,292.419 240.200 C 293.657 243.429,294.000 244.515,294.000 245.208 C 294.000 245.644,294.160 246.000,294.355 246.000 C 294.550 246.000,294.807 246.495,294.926 247.100 C 295.280 248.900,296.168 251.785,296.433 252.000 C 296.569 252.110,296.787 252.650,296.917 253.200 C 297.431 255.379,298.199 257.810,298.433 258.000 C 298.569 258.110,298.787 258.650,298.917 259.200 C 299.427 261.364,300.198 263.810,300.430 264.000 C 300.564 264.110,300.795 264.821,300.943 265.581 C 301.241 267.107,301.733 267.552,293.172 258.560 C 290.898 256.171,283.935 249.781,282.320 248.600 C 282.019 248.380,280.847 247.435,279.715 246.500 C 278.583 245.565,277.535 244.800,277.386 244.800 C 277.237 244.800,276.550 244.347,275.858 243.794 C 273.768 242.122,273.293 241.835,269.503 239.956 C 268.126 239.273,266.728 238.578,266.395 238.413 C 262.965 236.706,254.148 236.110,251.111 237.380 C 250.294 237.721,249.260 238.000,248.813 238.000 C 248.366 238.000,247.999 238.135,247.999 238.300 C 247.998 238.465,247.143 238.951,246.099 239.380 C 245.054 239.809,244.020 240.301,243.800 240.474 C 243.580 240.647,242.834 241.241,242.142 241.794 C 241.450 242.347,240.722 242.800,240.523 242.800 C 240.325 242.800,239.459 243.520,238.600 244.400 C 237.741 245.280,236.911 246.000,236.755 246.000 C 236.100 246.000,227.329 255.447,223.533 260.242 C 222.507 261.539,221.292 262.997,220.833 263.483 C 220.375 263.969,220.000 264.523,220.000 264.714 C 220.000 264.904,219.550 265.483,219.000 266.000 C 218.450 266.517,218.000 267.147,218.000 267.400 C 218.000 267.653,217.550 268.283,217.000 268.800 C 216.450 269.317,216.000 269.942,216.000 270.190 C 216.000 270.438,215.100 271.650,214.000 272.884 C 212.900 274.118,212.000 275.305,212.000 275.522 C 212.000 276.033,197.993 290.000,197.480 290.000 C 197.265 290.000,196.347 290.675,195.440 291.500 C 194.533 292.325,193.190 293.450,192.456 294.000 C 191.722 294.550,190.618 295.405,190.003 295.900 C 189.388 296.395,188.708 296.800,188.491 296.800 C 188.275 296.800,187.860 297.087,187.568 297.438 C 187.062 298.048,180.117 302.800,179.732 302.800 C 179.630 302.800,178.974 303.205,178.273 303.701 C 176.309 305.091,175.462 305.603,174.700 305.858 C 174.315 305.988,174.000 306.252,174.000 306.447 C 174.000 308.288,171.875 306.242,170.629 303.200 C 170.223 302.210,168.408 298.340,166.596 294.600 C 162.664 286.487,162.000 285.019,162.000 284.440 C 162.000 284.198,161.862 284.000,161.694 284.000 C 161.373 284.000,160.000 281.080,160.000 280.397 C 160.000 280.179,159.865 279.999,159.700 279.999 C 159.535 279.998,159.053 279.143,158.629 278.099 C 158.206 277.054,157.746 276.110,157.609 276.000 C 157.244 275.709,156.000 272.955,156.000 272.440 C 156.000 272.198,155.865 271.999,155.700 271.997 C 155.535 271.995,155.204 271.590,154.965 271.097 C 153.880 268.863,150.410 262.400,149.265 260.482 C 148.569 259.318,148.000 258.275,148.000 258.166 C 148.000 257.801,146.235 255.417,144.809 253.858 C 142.689 251.537,138.157 248.800,136.436 248.800 C 136.064 248.800,135.589 248.639,135.380 248.442 C 134.999 248.083,132.131 247.316,129.696 246.922 C 128.979 246.806,128.294 246.551,128.173 246.356 C 128.052 246.160,127.513 246.000,126.976 246.000 C 126.439 246.000,126.000 245.787,126.000 245.526 C 126.000 244.934,127.598 243.200,128.144 243.200 C 128.366 243.200,129.402 242.480,130.446 241.600 C 131.490 240.720,132.505 240.000,132.702 240.000 C 132.899 240.000,133.483 239.550,134.000 239.000 C 134.517 238.450,135.074 238.000,135.239 238.000 C 135.404 238.000,136.069 237.505,136.717 236.900 C 137.365 236.295,139.115 234.810,140.607 233.600 C 142.098 232.390,144.610 230.185,146.189 228.700 C 147.768 227.215,149.164 226.000,149.291 226.000 C 149.909 226.000,162.876 212.235,166.800 207.414 C 168.010 205.927,169.180 204.501,169.400 204.245 C 170.177 203.342,172.225 200.580,173.314 198.966 C 173.920 198.068,174.728 196.978,175.108 196.545 C 175.945 195.591,176.566 194.620,177.426 192.918 C 177.782 192.214,178.327 191.426,178.637 191.169 C 178.947 190.912,179.200 190.490,179.200 190.231 C 179.200 189.972,179.417 189.543,179.682 189.278 C 180.911 188.049,191.200 167.638,191.200 166.429 C 191.200 166.217,191.650 165.196,192.200 164.162 C 192.750 163.127,193.200 162.071,193.200 161.816 C 193.200 161.560,193.539 160.641,193.953 159.775 C 194.976 157.634,196.165 154.890,196.801 153.200 C 197.091 152.430,197.479 151.629,197.664 151.420 C 197.849 151.211,198.000 150.807,198.000 150.523 C 198.000 150.238,199.146 147.619,200.547 144.703 C 203.754 138.027,204.800 135.703,204.800 135.253 C 204.800 135.058,205.070 134.674,205.400 134.400 C 205.730 134.126,206.006 133.519,206.013 133.051 C 206.020 132.583,206.290 131.851,206.613 131.424 C 206.936 130.996,207.200 130.304,207.200 129.885 C 207.200 129.466,207.548 128.635,207.973 128.037 C 208.399 127.440,208.872 126.451,209.026 125.840 C 209.179 125.229,209.730 123.890,210.251 122.865 C 210.771 121.839,211.197 120.696,211.198 120.324 C 211.199 119.952,211.360 119.548,211.556 119.427 C 211.751 119.306,212.028 118.741,212.171 118.172 C 212.314 117.602,212.947 116.025,213.578 114.668 C 215.669 110.166,216.800 107.580,216.805 107.288 C 216.813 106.894,221.247 98.088,222.187 96.600 C 224.511 92.923,227.145 92.130,230.308 94.155 M212.783 105.652 C 212.500 106.510,212.028 107.411,211.734 107.655 C 211.440 107.898,211.200 108.446,211.200 108.872 C 211.200 109.298,210.760 110.433,210.223 111.396 C 209.686 112.358,209.126 113.832,208.979 114.672 C 208.831 115.513,208.295 116.927,207.788 117.816 C 207.280 118.705,206.370 120.955,205.764 122.816 C 205.159 124.677,204.354 126.650,203.976 127.200 C 203.599 127.750,203.017 129.100,202.685 130.200 C 202.353 131.300,201.432 133.500,200.640 135.089 C 199.848 136.678,199.200 138.157,199.200 138.375 C 199.200 138.799,197.935 141.665,197.600 142.000 C 197.490 142.110,196.936 143.100,196.368 144.200 C 194.036 148.723,192.247 151.847,191.545 152.626 C 191.135 153.080,190.800 153.635,190.800 153.859 C 190.800 154.083,190.059 155.062,189.154 156.033 C 187.702 157.591,186.321 159.475,185.008 161.688 C 183.707 163.882,177.137 172.627,174.827 175.240 C 173.932 176.252,173.200 177.222,173.200 177.395 C 173.200 177.569,172.165 178.874,170.900 180.294 C 169.635 181.715,168.150 183.445,167.600 184.138 C 165.696 186.539,158.244 194.000,157.750 194.000 C 157.477 194.000,157.145 194.344,157.011 194.764 C 156.404 196.677,155.805 196.551,152.034 193.723 C 150.038 192.225,147.774 190.550,147.003 190.000 C 144.745 188.390,143.548 187.471,142.180 186.300 C 141.473 185.695,140.715 185.200,140.496 185.200 C 140.277 185.200,139.854 184.906,139.555 184.546 C 139.256 184.186,138.334 183.463,137.506 182.941 C 135.319 181.560,135.071 181.899,146.708 170.390 C 160.491 156.760,164.061 154.003,169.200 153.021 C 174.222 152.061,181.834 146.531,185.471 141.200 C 185.847 140.650,186.254 140.110,186.377 140.000 C 186.986 139.454,190.000 135.622,190.000 135.394 C 190.000 135.249,191.163 133.571,192.584 131.665 C 194.005 129.759,195.543 127.660,196.002 127.000 C 196.462 126.340,198.527 123.370,200.591 120.400 C 202.656 117.430,204.932 114.190,205.649 113.200 C 206.367 112.210,207.504 110.629,208.177 109.686 C 208.850 108.744,209.850 107.378,210.400 106.651 C 210.950 105.924,211.759 104.849,212.198 104.260 C 213.190 102.932,213.464 103.587,212.783 105.652 M131.346 189.300 C 132.696 190.455,133.860 191.535,133.933 191.700 C 134.007 191.865,134.252 192.000,134.478 192.000 C 134.705 192.000,135.455 192.457,136.145 193.015 C 139.895 196.048,141.203 197.076,142.234 197.800 C 142.861 198.240,144.010 199.140,144.787 199.800 C 145.564 200.460,146.488 201.180,146.840 201.400 C 147.192 201.620,148.213 202.355,149.109 203.033 L 150.736 204.267 133.222 221.778 C 115.701 239.295,114.000 240.764,114.000 238.373 C 114.000 238.168,113.761 238.000,113.470 238.000 C 113.178 238.000,112.517 237.550,112.000 237.000 C 111.483 236.450,110.921 236.000,110.749 236.000 C 110.578 236.000,109.238 235.145,107.770 234.100 C 106.303 233.055,104.327 231.660,103.380 231.000 C 102.434 230.340,101.233 229.429,100.712 228.975 C 100.191 228.520,99.503 228.024,99.183 227.870 C 98.862 227.717,98.132 227.278,97.560 226.896 C 95.313 225.393,94.191 224.609,94.000 224.407 C 93.428 223.802,90.805 222.000,90.496 222.000 C 90.300 222.000,89.717 221.550,89.200 221.000 C 88.683 220.450,88.105 220.000,87.915 220.000 C 87.619 220.000,81.508 215.627,80.117 214.419 C 79.851 214.189,79.478 214.000,79.287 214.000 C 79.096 214.000,78.517 213.550,78.000 213.000 C 77.483 212.450,76.921 212.000,76.749 212.000 C 76.578 212.000,75.250 211.169,73.797 210.154 L 71.156 208.308 72.224 207.754 C 72.811 207.449,73.586 207.194,73.946 207.187 C 74.306 207.180,74.949 206.910,75.376 206.587 C 75.804 206.264,76.481 206.000,76.882 206.000 C 77.283 206.000,77.923 205.838,78.305 205.641 C 78.687 205.444,79.810 204.972,80.800 204.593 C 81.790 204.214,82.960 203.760,83.400 203.584 C 84.316 203.218,88.849 201.601,91.800 200.588 C 92.900 200.211,94.578 199.557,95.529 199.135 C 96.481 198.713,97.831 198.257,98.529 198.121 C 99.228 197.985,99.890 197.766,100.000 197.634 C 100.110 197.502,101.190 197.065,102.400 196.663 C 103.610 196.261,104.960 195.789,105.400 195.614 C 105.840 195.439,107.010 194.986,108.000 194.607 C 108.990 194.228,110.113 193.756,110.495 193.559 C 110.877 193.362,111.541 193.200,111.971 193.200 C 112.401 193.200,112.864 193.020,113.000 192.800 C 113.136 192.580,113.524 192.400,113.863 192.400 C 114.202 192.400,115.046 192.147,115.740 191.838 C 116.433 191.528,117.900 190.957,119.000 190.569 C 120.100 190.180,121.180 189.745,121.400 189.601 C 121.620 189.458,122.970 189.008,124.400 188.603 C 125.830 188.197,127.171 187.715,127.380 187.532 C 128.130 186.876,128.929 187.232,131.346 189.300 " stroke="none" fill="#dc3c04" fill-rule="evenodd"></path><path id="path2" d="M223.967 94.300 C 222.732 95.682,221.425 97.586,221.086 98.500 C 220.639 99.699,221.082 99.272,222.122 97.500 C 224.952 92.677,228.328 92.235,232.050 96.200 C 232.670 96.860,233.182 97.289,233.188 97.154 C 233.208 96.731,231.051 94.565,229.914 93.867 C 228.113 92.761,225.149 92.977,223.967 94.300 M234.910 100.075 C 235.840 101.481,236.653 102.510,236.718 102.362 C 236.863 102.030,234.643 98.699,233.821 98.018 C 233.491 97.744,233.981 98.669,234.910 100.075 M218.607 103.407 C 217.570 105.524,216.825 107.358,216.950 107.483 C 217.075 107.608,217.352 107.253,217.564 106.694 C 217.777 106.135,218.595 104.373,219.383 102.780 C 220.171 101.186,220.742 99.809,220.653 99.720 C 220.564 99.631,219.643 101.290,218.607 103.407 M212.198 104.260 C 211.759 104.849,210.950 105.924,210.400 106.651 C 209.850 107.378,208.850 108.744,208.177 109.686 C 207.504 110.629,206.367 112.210,205.649 113.200 C 204.932 114.190,202.656 117.430,200.591 120.400 C 198.527 123.370,196.462 126.340,196.002 127.000 C 195.543 127.660,194.005 129.759,192.584 131.665 C 191.163 133.571,190.000 135.249,190.000 135.394 C 190.000 135.622,186.986 139.454,186.377 140.000 C 186.254 140.110,185.847 140.650,185.471 141.200 C 183.540 144.031,177.317 149.680,174.808 150.881 C 171.470 152.478,170.898 152.696,169.200 153.021 C 164.061 154.003,160.491 156.760,146.708 170.390 C 135.071 181.899,135.319 181.560,137.506 182.941 C 138.334 183.463,139.256 184.186,139.555 184.546 C 139.854 184.906,140.277 185.200,140.496 185.200 C 140.715 185.200,141.473 185.695,142.180 186.300 C 143.548 187.471,144.745 188.390,147.003 190.000 C 147.774 190.550,150.038 192.225,152.034 193.723 C 155.805 196.551,156.404 196.677,157.011 194.764 C 157.145 194.344,157.477 194.000,157.750 194.000 C 158.244 194.000,165.696 186.539,167.600 184.138 C 168.150 183.445,169.635 181.715,170.900 180.294 C 172.165 178.874,173.200 177.569,173.200 177.395 C 173.200 177.222,173.932 176.252,174.827 175.240 C 177.137 172.627,183.707 163.882,185.008 161.688 C 186.321 159.475,187.702 157.591,189.154 156.033 C 190.059 155.062,190.800 154.083,190.800 153.859 C 190.800 153.635,191.135 153.080,191.545 152.626 C 192.247 151.847,194.036 148.723,196.368 144.200 C 196.936 143.100,197.490 142.110,197.600 142.000 C 197.935 141.665,199.200 138.799,199.200 138.375 C 199.200 138.157,199.848 136.678,200.640 135.089 C 201.432 133.500,202.353 131.300,202.685 130.200 C 203.017 129.100,203.599 127.750,203.976 127.200 C 204.354 126.650,205.159 124.677,205.764 122.816 C 206.370 120.955,207.280 118.705,207.788 117.816 C 208.295 116.927,208.831 115.513,208.979 114.672 C 209.126 113.832,209.686 112.358,210.223 111.396 C 210.760 110.433,211.200 109.298,211.200 108.872 C 211.200 108.446,211.440 107.898,211.734 107.655 C 212.363 107.132,213.364 104.291,213.147 103.642 C 213.065 103.394,212.638 103.672,212.198 104.260 M237.200 103.399 C 237.200 103.765,238.798 106.400,239.020 106.400 C 239.105 106.400,239.060 106.085,238.919 105.700 C 238.611 104.854,237.200 102.966,237.200 103.399 M239.200 107.053 C 239.200 107.387,240.819 110.000,241.026 110.000 C 241.115 110.000,240.812 109.280,240.353 108.400 C 239.570 106.898,239.200 106.465,239.200 107.053 M215.834 109.670 C 215.424 110.622,214.484 112.709,213.744 114.309 C 213.005 115.909,212.399 117.349,212.398 117.509 C 212.396 117.669,212.154 118.262,211.859 118.827 C 211.084 120.313,210.674 122.125,211.184 121.810 C 211.413 121.668,211.606 121.248,211.613 120.876 C 211.620 120.504,211.890 119.851,212.213 119.424 C 212.536 118.996,212.800 118.339,212.800 117.961 C 212.800 117.584,213.150 116.584,213.578 115.738 C 215.189 112.554,216.823 108.670,216.704 108.312 C 216.636 108.108,216.245 108.719,215.834 109.670 M241.200 110.613 C 241.200 110.731,242.095 112.576,243.189 114.713 C 245.590 119.406,248.400 125.505,248.400 126.024 C 248.400 126.231,248.591 126.400,248.824 126.400 C 249.057 126.400,249.182 126.265,249.103 126.100 C 249.023 125.935,248.500 124.810,247.941 123.600 C 244.149 115.397,241.200 109.716,241.200 110.613 M209.866 123.668 C 208.932 125.734,208.642 126.945,209.157 126.626 C 209.401 126.476,209.600 126.084,209.600 125.757 C 209.600 125.429,209.883 124.612,210.229 123.943 C 210.576 123.273,210.771 122.638,210.664 122.530 C 210.556 122.423,210.197 122.935,209.866 123.668 M249.225 127.076 C 249.211 127.338,249.920 129.104,250.800 131.000 C 251.680 132.896,252.400 134.707,252.400 135.024 C 252.400 135.341,252.560 135.600,252.757 135.600 C 252.953 135.600,253.227 136.055,253.367 136.611 C 253.506 137.167,254.076 138.652,254.633 139.911 C 255.190 141.170,255.797 142.560,255.982 143.000 C 256.167 143.440,256.607 144.457,256.959 145.260 C 257.312 146.064,257.600 146.913,257.600 147.148 C 257.600 147.383,257.960 148.217,258.400 149.000 C 258.840 149.783,259.200 150.600,259.200 150.814 C 259.200 151.029,259.627 152.089,260.149 153.171 C 260.671 154.252,261.216 155.646,261.361 156.269 C 261.506 156.891,261.958 158.120,262.364 159.000 C 262.770 159.880,263.419 161.410,263.806 162.400 C 264.192 163.390,264.754 164.767,265.054 165.460 C 265.354 166.154,265.600 166.973,265.600 167.280 C 265.600 167.588,265.756 168.011,265.947 168.220 C 266.138 168.429,266.608 169.500,266.990 170.600 C 267.793 172.911,268.347 174.312,268.847 175.295 C 269.041 175.677,269.200 176.189,269.200 176.434 C 269.200 176.679,269.488 177.536,269.841 178.340 C 270.937 180.837,271.142 181.369,271.407 182.400 C 271.994 184.685,273.260 186.892,272.898 185.000 C 272.793 184.450,272.571 184.000,272.406 184.000 C 272.240 184.000,272.008 183.404,271.890 182.675 C 271.771 181.946,271.320 180.551,270.886 179.575 C 270.453 178.599,269.781 176.900,269.393 175.800 C 269.005 174.700,268.566 173.620,268.417 173.400 C 268.268 173.180,267.799 171.875,267.373 170.500 C 266.948 169.125,266.465 168.000,266.300 168.000 C 266.135 168.000,266.000 167.584,266.000 167.076 C 266.000 166.569,265.736 165.804,265.413 165.376 C 265.090 164.949,264.820 164.231,264.813 163.780 C 264.806 163.329,264.645 162.789,264.456 162.580 C 264.267 162.371,263.781 161.255,263.377 160.100 C 262.973 158.945,262.521 158.000,262.373 158.000 C 262.226 158.000,262.010 157.415,261.893 156.700 C 261.777 155.985,261.235 154.410,260.689 153.200 C 260.144 151.990,259.459 150.325,259.168 149.500 C 258.877 148.675,258.495 148.000,258.320 148.000 C 258.144 148.000,258.000 147.584,258.000 147.076 C 258.000 146.569,257.736 145.804,257.413 145.376 C 257.090 144.949,256.820 144.364,256.813 144.075 C 256.806 143.787,256.332 142.527,255.761 141.275 C 254.776 139.120,253.943 137.190,253.225 135.400 C 252.824 134.402,251.204 130.784,250.090 128.400 C 249.628 127.410,249.238 126.814,249.225 127.076 M207.854 128.173 C 207.494 128.723,207.200 129.504,207.200 129.909 C 207.200 130.315,206.936 130.996,206.613 131.424 C 206.290 131.851,206.020 132.583,206.013 133.051 C 206.006 133.519,205.730 134.126,205.400 134.400 C 205.070 134.674,204.804 135.101,204.809 135.349 C 204.819 135.854,206.377 133.994,206.391 133.460 C 206.396 133.274,206.685 132.464,207.033 131.660 C 207.382 130.857,207.929 129.593,208.251 128.850 C 208.965 127.198,208.743 126.818,207.854 128.173 M203.653 138.053 C 203.163 139.176,202.836 140.169,202.926 140.260 C 203.017 140.350,203.488 139.501,203.973 138.373 C 204.459 137.245,204.786 136.252,204.700 136.167 C 204.615 136.081,204.144 136.930,203.653 138.053 M200.249 145.387 C 199.012 147.931,198.000 150.268,198.000 150.582 C 198.000 150.896,197.842 151.251,197.648 151.370 C 197.292 151.590,196.746 153.200,197.027 153.200 C 197.111 153.200,197.559 152.345,198.022 151.300 C 198.486 150.255,199.773 147.547,200.882 145.283 C 201.991 143.018,202.809 141.075,202.698 140.965 C 202.588 140.854,201.485 142.844,200.249 145.387 M196.432 153.922 C 196.401 154.423,195.553 156.425,193.953 159.775 C 193.539 160.641,193.200 161.560,193.200 161.816 C 193.200 162.071,192.781 163.073,192.269 164.040 C 191.161 166.134,190.736 167.600,191.237 167.600 C 191.437 167.600,191.600 167.335,191.600 167.011 C 191.600 166.687,192.069 165.382,192.641 164.111 C 193.214 162.840,193.832 161.440,194.014 161.000 C 195.010 158.597,195.666 157.051,196.227 155.782 C 196.572 155.002,196.767 154.147,196.659 153.882 C 196.517 153.532,196.455 153.543,196.432 153.922 M189.686 169.886 C 189.192 170.895,188.868 171.802,188.966 171.900 C 189.064 171.998,189.529 171.233,190.000 170.200 C 191.113 167.757,190.853 167.498,189.686 169.886 M188.169 173.043 C 188.031 173.459,187.271 175.150,186.479 176.800 C 185.687 178.450,184.975 179.935,184.896 180.100 C 184.817 180.265,184.845 180.400,184.957 180.400 C 185.314 180.400,188.894 172.760,188.651 172.518 C 188.523 172.390,188.306 172.626,188.169 173.043 M183.615 182.461 C 183.152 183.417,182.324 184.965,181.775 185.900 C 181.226 186.835,180.917 187.599,181.088 187.597 C 181.260 187.595,181.591 187.190,181.823 186.697 C 182.056 186.204,182.836 184.749,183.555 183.465 C 184.274 182.181,184.771 181.038,184.659 180.926 C 184.547 180.814,184.077 181.505,183.615 182.461 M273.456 187.587 C 273.591 188.350,273.838 189.250,274.004 189.587 C 274.498 190.588,275.073 192.075,275.789 194.200 C 276.159 195.300,276.609 196.560,276.789 197.000 C 276.968 197.440,277.418 198.700,277.789 199.800 C 278.565 202.105,278.841 202.827,279.745 204.914 C 280.105 205.746,280.400 206.680,280.400 206.990 C 280.400 207.300,280.587 207.668,280.816 207.810 C 281.261 208.085,280.928 206.133,280.404 205.400 C 280.247 205.180,279.786 204.010,279.379 202.800 C 278.972 201.590,278.495 200.429,278.319 200.220 C 278.144 200.011,278.000 199.460,278.000 198.996 C 278.000 198.533,277.736 197.804,277.413 197.376 C 277.090 196.949,276.820 196.206,276.813 195.724 C 276.806 195.242,276.643 194.750,276.452 194.632 C 276.260 194.514,275.997 193.886,275.868 193.238 C 275.738 192.589,275.281 191.281,274.852 190.329 C 274.423 189.378,273.878 188.060,273.641 187.400 L 273.209 186.200 273.456 187.587 M127.434 187.500 C 127.269 187.665,126.474 188.018,125.667 188.284 L 124.200 188.769 125.600 188.542 C 126.370 188.418,127.171 188.155,127.380 187.958 C 127.983 187.390,128.535 187.532,129.611 188.530 C 130.162 189.041,131.150 189.784,131.807 190.181 C 132.580 190.649,132.296 190.257,131.000 189.067 C 129.077 187.301,128.073 186.860,127.434 187.500 M179.900 189.014 C 179.515 189.529,179.200 190.120,179.200 190.326 C 179.200 190.533,178.947 190.912,178.637 191.169 C 178.327 191.426,177.782 192.214,177.426 192.918 C 176.566 194.620,175.945 195.591,175.108 196.545 C 174.728 196.978,173.920 198.068,173.314 198.966 C 172.225 200.580,170.177 203.342,169.400 204.245 C 169.180 204.501,168.010 205.927,166.800 207.414 C 162.876 212.235,149.909 226.000,149.291 226.000 C 149.164 226.000,147.768 227.215,146.189 228.700 C 144.610 230.185,142.098 232.390,140.607 233.600 C 139.115 234.810,137.365 236.295,136.717 236.900 C 136.069 237.505,135.404 238.000,135.239 238.000 C 135.074 238.000,134.517 238.450,134.000 239.000 C 133.483 239.550,132.867 240.007,132.630 240.017 C 132.103 240.037,128.919 242.803,129.433 242.794 C 129.635 242.790,130.379 242.295,131.086 241.694 C 131.794 241.092,133.027 240.150,133.827 239.600 C 134.628 239.050,135.931 238.015,136.725 237.300 C 137.518 236.585,138.282 236.000,138.422 236.000 C 138.562 236.000,139.296 235.415,140.052 234.700 C 140.808 233.985,143.221 231.870,145.414 230.000 C 150.425 225.727,158.758 217.404,163.200 212.237 C 165.070 210.061,166.780 208.078,167.000 207.831 C 169.692 204.801,176.459 195.628,177.498 193.600 C 177.667 193.270,178.494 191.950,179.336 190.667 C 180.856 188.351,181.242 187.221,179.900 189.014 M122.600 189.089 C 122.160 189.198,121.620 189.416,121.400 189.574 C 121.180 189.733,120.100 190.180,119.000 190.569 C 117.900 190.957,116.433 191.528,115.740 191.838 C 115.046 192.147,114.202 192.400,113.863 192.400 C 113.524 192.400,113.136 192.580,113.000 192.800 C 112.864 193.020,112.324 193.200,111.800 193.200 C 111.276 193.200,110.750 193.357,110.632 193.548 C 110.514 193.740,109.844 194.011,109.144 194.151 C 108.445 194.291,107.987 194.520,108.127 194.661 C 108.349 194.882,110.402 194.272,113.000 193.211 C 113.440 193.032,114.700 192.582,115.800 192.211 C 118.105 191.435,118.827 191.159,120.914 190.255 C 121.746 189.895,122.680 189.600,122.990 189.600 C 123.300 189.600,123.664 189.420,123.800 189.200 C 124.059 188.781,123.911 188.767,122.600 189.089 M133.200 191.395 C 133.200 191.502,133.875 192.041,134.700 192.592 C 135.525 193.143,137.190 194.331,138.400 195.231 C 140.142 196.527,140.290 196.590,139.112 195.534 C 136.589 193.271,134.910 192.000,134.445 192.000 C 134.200 192.000,134.000 191.820,134.000 191.600 C 134.000 191.380,133.820 191.200,133.600 191.200 C 133.380 191.200,133.200 191.288,133.200 191.395 M106.800 195.061 C 106.470 195.170,105.840 195.410,105.400 195.595 C 104.960 195.781,103.610 196.261,102.400 196.663 C 101.190 197.065,100.110 197.502,100.000 197.634 C 99.890 197.766,99.228 197.985,98.529 198.121 C 97.831 198.257,96.481 198.713,95.529 199.135 C 94.578 199.557,92.900 200.211,91.800 200.588 C 88.278 201.797,84.224 203.254,83.400 203.607 C 82.960 203.795,82.181 204.067,81.670 204.211 C 81.158 204.355,80.839 204.573,80.961 204.694 C 81.154 204.887,83.279 204.237,85.800 203.213 C 86.240 203.034,88.220 202.308,90.200 201.600 C 94.026 200.231,95.425 199.692,96.413 199.204 C 96.750 199.038,97.644 198.766,98.400 198.600 C 99.156 198.434,100.050 198.169,100.387 198.012 C 100.724 197.854,101.360 197.553,101.800 197.344 C 102.240 197.134,103.725 196.611,105.100 196.181 C 106.475 195.752,107.600 195.265,107.600 195.100 C 107.600 194.935,107.555 194.814,107.500 194.832 C 107.445 194.849,107.130 194.952,106.800 195.061 M140.958 197.132 C 141.113 197.382,142.806 198.802,144.720 200.287 C 146.634 201.772,148.422 203.199,148.693 203.458 C 148.964 203.717,149.414 204.016,149.693 204.122 C 150.231 204.327,116.099 238.814,115.400 238.771 C 115.180 238.758,114.190 238.129,113.200 237.373 C 112.210 236.618,110.995 235.791,110.500 235.535 C 110.005 235.280,109.600 234.920,109.600 234.736 C 109.600 234.551,109.419 234.400,109.197 234.400 C 108.975 234.400,107.158 233.217,105.159 231.771 C 103.161 230.325,101.445 229.222,101.346 229.321 C 101.247 229.419,102.119 230.150,103.283 230.943 C 104.447 231.737,106.532 233.200,107.915 234.193 C 109.298 235.187,110.572 236.000,110.745 236.000 C 110.919 236.000,111.483 236.450,112.000 237.000 C 112.517 237.550,113.178 238.000,113.470 238.000 C 113.761 238.000,114.000 238.168,114.000 238.373 C 114.000 240.764,115.701 239.295,133.222 221.778 L 150.736 204.267 149.109 203.033 C 148.213 202.355,147.192 201.620,146.840 201.400 C 146.488 201.180,145.553 200.460,144.763 199.800 C 141.549 197.117,140.489 196.374,140.958 197.132 M79.400 205.085 C 78.960 205.191,78.429 205.440,78.220 205.639 C 78.011 205.837,77.460 206.000,76.996 206.000 C 76.533 206.000,75.804 206.264,75.376 206.587 C 74.949 206.910,74.306 207.180,73.946 207.187 C 73.586 207.194,72.811 207.449,72.224 207.754 L 71.156 208.308 73.797 210.154 C 75.250 211.169,76.578 212.000,76.749 212.000 C 76.921 212.000,77.483 212.450,78.000 213.000 C 78.517 213.550,79.178 214.000,79.470 214.000 C 79.761 214.000,80.000 214.161,80.000 214.357 C 80.000 214.554,80.315 214.824,80.700 214.959 C 81.507 215.241,79.994 213.903,77.808 212.400 C 77.007 211.850,76.106 211.175,75.805 210.900 C 75.504 210.625,75.109 210.394,74.929 210.386 C 72.918 210.298,72.098 207.624,74.076 207.606 C 74.448 207.603,74.864 207.420,75.000 207.200 C 75.136 206.980,75.552 206.799,75.924 206.798 C 76.296 206.796,77.116 206.526,77.746 206.198 C 78.376 205.869,79.130 205.600,79.422 205.600 C 79.714 205.600,80.064 205.420,80.200 205.200 C 80.336 204.980,80.392 204.821,80.324 204.846 C 80.256 204.872,79.840 204.979,79.400 205.085 M281.232 208.765 C 281.185 209.601,282.553 213.594,282.887 213.597 C 283.176 213.600,283.016 212.891,282.393 211.400 C 282.209 210.960,281.880 210.060,281.661 209.400 C 281.442 208.740,281.249 208.454,281.232 208.765 M283.200 214.519 C 283.200 214.877,283.562 216.090,284.005 217.213 C 284.448 218.336,285.171 220.368,285.611 221.728 C 286.052 223.087,286.566 224.476,286.755 224.813 C 286.944 225.150,287.234 226.044,287.400 226.800 C 287.566 227.556,287.846 228.450,288.022 228.787 C 288.198 229.124,288.449 229.741,288.580 230.157 C 288.711 230.574,288.923 230.810,289.051 230.682 C 289.179 230.554,288.999 229.881,288.652 229.185 C 288.305 228.489,287.906 227.306,287.765 226.555 C 287.624 225.805,287.350 225.093,287.155 224.972 C 286.960 224.851,286.800 224.401,286.800 223.971 C 286.800 223.541,286.632 222.877,286.426 222.495 C 286.220 222.113,285.473 220.090,284.766 218.000 C 283.388 213.924,283.200 213.506,283.200 214.519 M81.600 215.384 C 81.600 215.664,87.543 220.000,87.926 220.000 C 88.110 220.000,88.683 220.450,89.200 221.000 C 89.717 221.550,90.319 222.000,90.538 222.000 C 90.758 222.000,91.266 222.298,91.669 222.662 C 92.071 223.026,92.400 223.155,92.400 222.948 C 92.400 222.742,91.815 222.228,91.100 221.806 C 90.385 221.385,89.451 220.716,89.025 220.320 C 88.598 219.924,88.116 219.600,87.953 219.600 C 87.790 219.600,87.419 219.375,87.129 219.099 C 86.838 218.824,85.790 218.077,84.800 217.439 C 83.810 216.801,82.856 216.036,82.680 215.739 C 82.380 215.234,81.600 214.978,81.600 215.384 M93.425 223.903 C 94.145 224.557,94.874 225.086,97.560 226.905 C 98.132 227.292,98.915 227.718,99.300 227.851 C 99.685 227.984,100.000 228.252,100.000 228.447 C 100.000 228.641,100.202 228.800,100.449 228.800 C 100.759 228.800,100.744 228.615,100.400 228.200 C 100.126 227.870,99.742 227.600,99.547 227.600 C 99.352 227.600,97.854 226.610,96.217 225.400 C 93.335 223.268,91.842 222.468,93.425 223.903 M289.206 231.692 C 289.200 232.380,290.149 235.209,290.803 236.451 C 290.991 236.809,291.268 237.756,291.418 238.555 C 291.568 239.355,291.850 240.107,292.045 240.228 C 292.240 240.349,292.400 240.876,292.400 241.400 C 292.400 241.924,292.564 242.454,292.765 242.578 C 292.966 242.703,293.252 243.522,293.400 244.400 C 293.548 245.278,293.834 246.097,294.035 246.222 C 294.236 246.346,294.400 246.786,294.400 247.200 C 294.400 247.614,294.547 248.044,294.728 248.155 C 294.908 248.267,294.977 247.827,294.882 247.179 C 294.787 246.530,294.550 246.000,294.355 246.000 C 294.160 246.000,294.000 245.644,294.000 245.208 C 294.000 244.515,293.657 243.429,292.419 240.200 C 292.250 239.760,291.785 238.320,291.385 237.000 C 290.986 235.680,290.510 234.429,290.329 234.220 C 290.148 234.011,289.997 233.471,289.994 233.020 C 289.991 232.569,289.813 231.930,289.600 231.600 C 289.268 231.086,289.211 231.099,289.206 231.692 M253.405 236.271 C 252.528 236.375,251.628 236.601,251.405 236.775 C 251.182 236.948,250.460 237.213,249.800 237.364 C 248.204 237.729,243.758 239.927,243.161 240.647 C 242.777 241.110,242.812 241.170,243.343 240.966 C 243.705 240.828,244.000 240.593,244.000 240.445 C 244.000 240.297,244.900 239.827,246.000 239.400 C 247.100 238.973,248.000 238.484,248.000 238.312 C 248.000 238.140,248.366 238.000,248.813 238.000 C 249.260 238.000,250.294 237.721,251.111 237.380 C 254.148 236.110,262.965 236.706,266.395 238.413 C 270.203 240.307,272.057 241.108,271.400 240.576 C 267.736 237.606,259.259 235.578,253.405 236.271 M238.752 243.718 C 234.811 246.927,230.147 251.631,226.177 256.400 C 224.437 258.490,222.784 260.439,222.504 260.731 C 221.901 261.360,221.096 262.800,221.347 262.800 C 221.444 262.800,222.395 261.694,223.462 260.342 C 227.271 255.512,236.088 246.000,236.755 246.000 C 236.911 246.000,237.741 245.280,238.600 244.400 C 239.459 243.520,240.368 242.800,240.619 242.800 C 240.870 242.800,241.402 242.440,241.800 242.000 C 243.197 240.456,241.770 241.260,238.752 243.718 M272.623 241.637 C 272.746 241.837,273.107 242.000,273.424 242.000 C 273.741 242.000,274.000 242.161,274.000 242.357 C 274.000 242.554,274.305 242.831,274.678 242.974 C 275.295 243.212,275.293 243.166,274.652 242.457 C 273.938 241.669,272.211 240.971,272.623 241.637 M126.870 244.126 C 125.731 245.338,125.768 246.000,126.976 246.000 C 127.513 246.000,128.052 246.160,128.173 246.356 C 128.294 246.551,129.012 246.784,129.768 246.872 C 130.525 246.961,131.056 246.890,130.948 246.716 C 130.841 246.542,130.425 246.400,130.025 246.400 C 129.281 246.400,126.400 245.314,126.400 245.034 C 126.400 244.948,126.985 244.504,127.700 244.046 C 128.453 243.564,128.735 243.211,128.370 243.207 C 128.023 243.203,127.348 243.617,126.870 244.126 M276.200 244.000 C 276.598 244.440,277.089 244.800,277.290 244.800 C 277.607 244.800,280.716 247.211,282.319 248.700 C 282.615 248.975,282.979 249.198,283.129 249.197 C 283.547 249.191,280.859 246.790,278.317 244.899 C 275.855 243.067,275.044 242.722,276.200 244.000 M133.000 247.642 C 133.880 247.841,134.960 248.168,135.400 248.368 C 136.585 248.909,138.171 249.209,137.758 248.814 C 137.259 248.338,133.230 247.191,132.227 247.240 C 131.772 247.262,132.120 247.443,133.000 247.642 M295.427 250.200 C 295.556 251.080,295.828 251.971,296.031 252.180 C 296.234 252.389,296.400 252.873,296.400 253.256 C 296.400 253.639,296.547 254.044,296.728 254.155 C 296.908 254.267,296.977 253.827,296.882 253.179 C 296.787 252.530,296.550 252.000,296.355 252.000 C 296.160 252.000,295.987 251.595,295.972 251.100 C 295.956 250.605,295.774 249.840,295.568 249.400 C 295.294 248.819,295.256 249.037,295.427 250.200 M139.200 249.736 C 142.471 251.275,148.000 256.587,148.000 258.191 C 148.000 258.314,148.680 259.536,149.510 260.907 C 150.341 262.278,151.347 264.090,151.745 264.932 C 152.143 265.775,152.553 266.380,152.657 266.276 C 152.941 265.992,149.806 260.238,147.324 256.486 C 145.111 253.143,140.441 249.151,138.837 249.232 C 138.430 249.253,138.561 249.435,139.200 249.736 M286.462 252.030 C 288.147 253.664,290.667 256.095,292.062 257.433 C 293.458 258.771,296.085 261.471,297.901 263.433 C 301.057 266.844,301.190 266.939,300.937 265.600 C 300.792 264.830,300.522 264.140,300.337 264.067 C 300.151 263.993,299.987 263.543,299.972 263.067 C 299.956 262.590,299.774 261.840,299.568 261.400 C 299.294 260.819,299.256 261.037,299.427 262.200 C 299.556 263.080,299.828 263.971,300.031 264.180 C 300.234 264.389,300.400 264.813,300.400 265.122 C 300.400 265.432,299.191 264.361,297.713 262.742 C 294.520 259.245,291.094 255.817,287.778 252.800 C 283.863 249.238,283.159 248.827,286.462 252.030 M297.427 256.200 C 297.556 257.080,297.828 257.971,298.031 258.180 C 298.234 258.389,298.400 258.873,298.400 259.256 C 298.400 259.639,298.547 260.044,298.728 260.155 C 298.908 260.267,298.977 259.827,298.882 259.179 C 298.787 258.530,298.550 258.000,298.355 258.000 C 298.160 258.000,297.987 257.595,297.972 257.100 C 297.956 256.605,297.774 255.840,297.568 255.400 C 297.294 254.819,297.256 255.037,297.427 256.200 M219.433 264.662 C 217.792 267.125,217.049 268.148,216.301 268.975 C 215.916 269.402,215.600 269.869,215.600 270.014 C 215.600 270.159,215.285 270.652,214.900 271.109 C 214.515 271.567,213.570 272.791,212.800 273.829 C 210.947 276.328,199.641 287.702,196.600 290.128 C 195.280 291.181,193.909 292.281,193.552 292.572 C 193.196 292.864,191.216 294.333,189.152 295.837 C 187.089 297.340,185.310 298.675,185.200 298.802 C 185.090 298.929,183.663 299.881,182.029 300.917 C 180.395 301.953,179.252 302.800,179.488 302.800 C 180.048 302.800,186.881 298.266,187.568 297.438 C 187.860 297.087,188.275 296.800,188.491 296.800 C 188.708 296.800,189.388 296.395,190.003 295.900 C 190.618 295.405,191.722 294.550,192.456 294.000 C 193.190 293.450,194.533 292.325,195.440 291.500 C 196.347 290.675,197.265 290.000,197.480 290.000 C 197.993 290.000,212.000 276.033,212.000 275.522 C 212.000 275.305,212.900 274.118,214.000 272.884 C 215.100 271.650,216.000 270.438,216.000 270.190 C 216.000 269.942,216.450 269.317,217.000 268.800 C 217.550 268.283,218.000 267.653,218.000 267.400 C 218.000 267.147,218.450 266.517,219.000 266.000 C 219.550 265.483,220.000 264.837,220.000 264.564 C 220.000 264.290,220.225 263.986,220.500 263.888 C 220.775 263.790,220.878 263.578,220.729 263.417 C 220.580 263.256,219.997 263.816,219.433 264.662 M153.075 267.479 C 153.222 267.876,153.760 268.871,154.271 269.692 C 154.782 270.513,155.200 271.368,155.200 271.592 C 155.200 271.816,155.380 272.000,155.600 272.000 C 155.820 272.000,156.000 272.198,156.000 272.440 C 156.000 272.975,157.254 275.722,157.625 276.000 C 157.772 276.110,158.023 276.619,158.183 277.130 C 158.342 277.642,158.555 277.978,158.656 277.877 C 158.913 277.620,157.478 274.400,157.106 274.400 C 156.938 274.400,156.800 274.202,156.800 273.960 C 156.800 273.476,155.574 270.718,155.217 270.400 C 155.093 270.290,154.634 269.510,154.196 268.667 C 153.349 267.036,152.630 266.275,153.075 267.479 M159.084 279.200 C 159.199 279.640,159.452 280.000,159.647 280.000 C 159.841 280.000,160.000 280.179,160.000 280.397 C 160.000 281.080,161.373 284.000,161.694 284.000 C 161.862 284.000,162.000 284.198,162.000 284.440 C 162.000 285.298,166.406 294.528,166.683 294.250 C 166.784 294.149,166.131 292.584,165.233 290.770 C 164.335 288.957,163.600 287.232,163.600 286.937 C 163.600 286.641,163.420 286.400,163.200 286.400 C 162.980 286.400,162.800 286.221,162.800 286.003 C 162.800 285.320,161.427 282.400,161.106 282.400 C 160.938 282.400,160.800 282.221,160.800 282.003 C 160.800 281.784,160.488 280.884,160.106 280.003 C 159.382 278.332,158.721 277.813,159.084 279.200 M166.896 295.100 C 169.154 299.828,170.026 301.719,170.631 303.200 C 171.873 306.239,174.000 308.289,174.000 306.447 C 174.000 306.252,174.315 305.985,174.700 305.852 C 176.336 305.289,179.352 303.200,178.529 303.200 C 178.292 303.200,177.874 303.470,177.600 303.800 C 177.326 304.130,176.941 304.400,176.743 304.400 C 176.546 304.400,175.671 304.850,174.800 305.400 C 172.698 306.727,172.684 306.722,171.622 304.300 C 169.915 300.403,167.163 294.800,166.957 294.800 C 166.845 294.800,166.817 294.935,166.896 295.100 " stroke="none" fill="#fb8b04" fill-rule="evenodd"></path></g></svg>